<?xml version="1.0" encoding="UTF-8"?>
<svg width="512pt" height="512pt" version="1.1" viewBox="0 0 512 512" xmlns="http://www.w3.org/2000/svg">
 <path d="m476.54 301.57c-1.3672 1.1094-6.1875-1.0664-7.7227-1.2812-2.4766-0.33984-17.922-0.98047-24.492-0.8125-0.59766 0-1.1523 0.42578-1.3242 0.98047-0.98047 3.4141-2.7734 21.59-23.125 27.18-9.0039 14.934-25.344 50.434-103.17 50.434-35.797 0-46.422-2.6445-60.5-5.0781-14.078-2.4766-62.078-10.199-69.762-11.266-21.078-2.9883-94.379-7.9375-119.94-7.6797-9.5938 0.046875-28.965 0.94531-28.965-11.047 0-9.0469 77.953-33.75 100.69-33.922 8.875 17.449 28.715 33.961 69.676 37.633 9.9844 0.89453 23.766 2.0039 37.973 2.1328 10.41 0.085937 44.887-3.9688 53.59-5.7188 15.871-3.1562 64.684-20.652 75.734-43.18 2.5586-5.207 0.59766-15.148 2.9883-20.309 3.2422-7.082 8.6602-12.375 11.82-13.609 1.1523-7.7656 0.33984-9.1289-2.4336-40.703-2.8594-32.555-3.2852-43.051-4.1367-51.926-0.64062-6.5273-2.5156-24.961-2.5156-25.047-1.6211-2.1758-3.8828-3.2422-3.8828-6.2305 0-3.625 3.668-5.2891 7.8086-5.7188 5.5469-0.55469 7.8516 3.7969 7.0391 7.0391-0.64063 2.6016-2.8164 3.2852-3.9688 4.6523 0.42578 2.5156 5.8867 42.922 6.9531 52.652 0.46875 4.1797 2.5156 18.645 4.7344 33.152 1.1523-6.9961 7.6367-40.703 8.2344-45.184 0.042969-0.29688 0-0.59766-0.21484-0.85156-3.543-4.3945-0.85156-12.801 7.3398-10.324 9.0898 2.7305 3.543 11.82-0.89453 11.82-0.38281 0-0.64062 0.38281-0.72656 0.76953-2.6875 9.7695-3.2422 54.656-2.0039 77.098 7.0391 1.75 15.617 4.4375 18.902 4.6094 2.0469 0.085938 10.238-1.8359 17.195-3.2852 1.8359-0.38281 3.543-0.89453 5.0352-1.2383 2.9453-0.72656 8.2344-6.6133 9.7695 0.8125 1.9609 5.332-5.6328 3.4141-8.0195 4.2227-6.3555 2.1758-14.039 3.7969-18.602 5.6328 1.8359 1.4922 7.0391 6.9531 6.5703 12.672 5.7188 0.38281 23.168 2.9883 27.477 3.4141 3.2422 0.33984 4.0977-1.8359 5.8438-1.1094 2.5977 1.1914 2.9844 7.0352 1.0195 8.6133z" fill="#1464c1"/>
 <path d="m365.57 301.87c-19.797 19.754-78.977 39.723-113.54 39.082 14.934-9.5156 24.234-27.945 26.238-33.152 1.75-4.6094 5.7617-17.324 6.0156-32.34 0.21484-13.141 0.21484-29.227-5.8867-41.812-6.9961-14.379-12.246-20.012-18.688-25.09-5.9297-4.6914-14.508-10.582-28.246-14.719-13.27-4.0117-30.676-3.7539-42.324 0.042968-11.605 3.7969-22.355 11.008-30.762 22.613-2.9023 4.0547-6.6992 13.398-7.3828 18.988-0.89453 7.5508-0.68359 14.121 0.72656 21.332 1.793 9.2148 9.6445 21.035 16.852 26.281 11.051 8.0625 27.434 7.8516 35.668 4.2227 7.9805-3.543 15.02-9.1289 19.543-15.871 5.6758-8.5352 8.0625-23.508 5.0781-35.242-3.0703-12.074-13.098-18.176-20.098-20.566-3.7539-1.2812-10.965-2.0898-17.836-1.2383-4.0117 0.51172-7.7227 2.0039-9.9414 3.0312-5.5469 2.6016-10.238 7.125-11.863 11.477-3.2422 8.7031-1.6211 19.285 1.5352 23.383 3.1562 4.0977 7.5938 8.4492 16.852 8.2773 9.2578-0.17188 14.039-4.5234 17.195-9.7266 3.1562-5.1641 2.0469-12.844 0.9375-15.488-3.8398-9.4297-10.793-11.18-17.367-10.836-4.9922 0.25781-9.3008 4.1797-10.496 6.5703-2.6016 5.332-2.2617 12.629 2.3906 16.383 3.8398 3.0703 10.027 3.2852 14.293-0.12891 2.5586-2.0039 3.7969-6.6562 2.6016-10.582-0.42578 4.0977-3.9258 7.5508-8.1484 7.5508-4.5234 0-8.1914-3.5859-8.1914-8.0195 0-3.9258 2.8594-7.168 6.6992-7.8945h0.042969c2.0898-0.46875 5.1641-0.29688 7.168 0.42578 3.1992 1.1523 5.207 3.2422 6.1445 5.2461 1.2812 2.7734 1.707 6.4414 1.4922 9.3008-0.42578 5.5469-7.2539 12.543-13.996 12.672-9.0469 0.17188-15.188-4.2227-16.895-13.141-1.6641-8.7031 2.0039-17.578 10.156-21.504 14.465-7.0391 33.324-1.4492 38.91 14.164 1.1094 3.1562 2.0039 9.5586 1.5781 14.891-0.38281 4.6094-1.793 11.477-4.6523 15.871-2.3477 3.543-6.6133 8.3633-10.453 10.836-4.5234 2.9453-10.41 4.7344-17.023 4.7773-13.141 0.085937-23.98-7.7656-28.93-20.609-3.7109-9.6016-3.8828-20.906-2.2617-27.434 1.1953-4.8203 4.2227-11.434 7.125-15.402 2.5156-3.4141 4.4805-5.9727 7.4258-8.3203 2.0898-1.6641 5.6328-3.8828 7.5078-4.8633 5.0352-2.5586 13.695-5.9297 25.387-6.1016 4.0547-0.042969 9.5156 0.55469 15.273 1.4922 8.2773 1.3242 17.152 4.9062 23.852 9.3008 7.6367 4.9922 22.828 19.242 27.434 38.828 1.707 7.2969 3.1562 19.5 2.1758 30.164-1.1094 12.203-4.6523 23.168-6.6133 27.52-4.1367 9.3008-15.914 29.312-24.617 32.512-6.1875 2.2617-19.668 2.5586-32.34 0.98047-20.82-2.6016-35.156-5.5469-47.316-14.805-10.238-7.7656-17.922-18.645-22.23-26.07-5.9727-10.324-11.18-22.613-12.289-36.012-2.0898-25.645 3.4141-52.82 21.207-71.34 18.988-19.84 48.297-31.188 82.816-30.762 32.086 0.42578 65.664 15.957 84.691 33.836 23.426 22.016 39.254 43.137 50.559 96.426 0.73828 3.8086-0.41406 7.8203-3.1875 10.594z" fill="#1464c1"/>
</svg>
