<?xml version="1.0" encoding="UTF-8"?>
<svg width="512pt" height="512pt" version="1.1" viewBox="0 0 512 512" xmlns="http://www.w3.org/2000/svg">
 <path d="m461.34 268.39c-1.0781-1.0781-1.6172-2.1562-2.6953-3.7734 0.53906 1.0781 1.6172 2.6953 2.6953 3.7734-0.53906 0-0.53906 0 0 0z" fill="#1464c1"/>
 <path d="m492.6 322.29c-2.6953-4.3125-5.3906-8.625-8.0859-13.473-1.0781-2.1562-2.1562-4.3125-1.6172-7.0078 1.6172 1.0781 2.6953 1.6172 3.7734 2.6953l0.53906-0.53906c-0.53906-1.0781-1.0781-2.6953-1.6172-3.2344-1.0781-1.0781-2.1562-1.6172-3.2344-2.1562-1.6172-1.0781-2.1562-3.7734-1.6172-5.3906 0.53906-2.1562 2.1562-1.6172 3.7734-1.0781h1.0781v-1.6172c-1.6172-1.0781-2.6953-2.1562-4.3125-3.2344-4.8516-2.1562-8.625-5.3906-10.238-10.777 0-0.53906-0.53906-1.0781-0.53906-1.6172-1.6172-3.7734-1.6172-3.7734 2.1562-6.4688 1.6172-1.0781 2.6953-1.6172 4.3125-2.6953 9.1602-7.0078 16.168-15.629 18.324-26.949 1.0781-4.8516 0.53906-9.1602-3.7734-12.395-3.7734-2.6953-7.0078-5.3906-9.6992-8.0859-1.6172-1.0781-2.6953-2.6953-3.7734-4.3125-5.3906-9.1602-10.238-18.324-16.168-26.949-14.551-22.637-29.641-44.734-47.965-64.672-10.777-11.316-21.559-21.559-35.57-28.562-25.332-12.934-52.277-20.48-80.844-22.098-18.863-1.0781-37.727 0.53906-56.051 6.4688-28.023 9.1602-51.199 24.793-69.523 48.504-4.8516 6.4688-9.6992 12.934-14.551 18.863-4.3125-4.8516-8.0859-9.6992-11.855-14.551-14.012-16.707-31.797-26.949-52.277-32.336-5.3906-1.6172-10.777-2.6953-16.168-4.3125-5.3906-1.6172-10.777-2.1562-16.168-0.53906-7.5469 1.6172-14.551 3.7734-22.098 5.9297-3.7734 1.0781-7.5469 3.2344-10.777 4.8516-7.0078 3.7734-11.316 9.6992-11.855 17.785-0.53906 7.0078-1.6172 14.012-2.1562 21.02-0.53906 3.7734 1.0781 6.4688 4.3125 8.0859 1.0781 0.53906 2.1562 1.0781 3.2344 1.6172 1.0781 0.53906 1.6172 1.0781 1.6172 2.1562 0 4.8516 2.1562 8.625 5.9297 11.316 1.6172 1.6172 3.2344 3.2344 4.8516 5.3906 3.7734 3.7734 7.0078 7.5469 10.777 11.316 2.1562 2.6953 4.8516 4.8516 7.0078 7.5469 3.2344 3.7734 5.9297 7.5469 9.1602 10.777 8.0859 7.5469 17.785 11.316 28.562 14.551 8.625 2.1562 17.785 4.3125 26.949 6.4688 1.0781 0 1.6172 0.53906 2.1562 1.0781 5.3906 4.3125 10.238 8.0859 15.09 12.395 2.1562 1.6172 3.7734 3.2344 6.4688 4.8516-5.3906 2.6953-10.238 5.3906-15.09 7.5469-16.707 8.625-23.715 22.637-24.254 40.961-0.53906 12.934 3.2344 24.793 9.1602 36.109 5.3906 10.777 11.316 21.02 18.863 29.641 4.3125 4.8516 5.9297 11.316 6.4688 17.785 0.53906 3.2344 1.6172 5.9297 2.1562 8.625 2.1562-1.6172 3.7734-2.6953 6.4688-4.3125 1.0781 7.5469 4.8516 12.395 10.777 15.629 0-1.0781 0-2.1562 0.53906-3.2344 1.0781-2.6953 1.6172-5.9297 2.6953-8.0859 1.0781-2.6953 2.6953-2.6953 4.8516-1.0781 1.0781 0.53906 1.6172 1.0781 2.6953 2.1562 2.1562-4.8516 1.6172-9.1602 2.1562-14.551 2.1562 1.0781 3.2344 1.6172 5.3906 2.6953 1.0781-2.6953-0.53906-4.8516-1.0781-7.5469-0.53906-2.6953-1.0781-4.8516-1.6172-7.5469 0 0 0.53906-0.53906 1.0781-0.53906 2.1562 1.0781 4.3125 2.1562 6.4688 2.6953 0 0 0-0.53906 0.53906-0.53906-1.0781-1.6172-2.1562-3.2344-3.2344-4.3125-2.1562-2.1562-3.2344-4.8516-3.2344-8.0859 0-2.1562 0.53906-2.6953 2.6953-2.1562 1.0781 0 2.1562 0.53906 3.2344 0.53906-2.1562-3.7734-4.3125-5.3906-7.0078-7.0078-0.53906-0.53906-1.6172-0.53906-1.6172-1.0781v-5.3906c0-0.53906 2.1562-0.53906 3.7734-0.53906-0.53906-2.6953-1.6172-4.3125-4.3125-5.3906-2.1562-0.53906-2.1562-2.1562-1.6172-3.7734 0-0.53906 2.1562-1.0781 2.6953-1.0781 2.1562 0 3.7734 1.0781 5.9297 1.0781-0.53906-1.0781-0.53906-2.1562-1.6172-2.6953-1.6172-1.0781-3.7734-2.1562-4.8516-3.7734-1.0781-1.0781-1.6172-2.1562-2.1562-3.7734-0.53906-1.6172 0-2.6953 1.6172-2.6953 1.0781 0 3.7734-1.0781 3.7734-1.0781-1.0781-0.53906-2.6953-1.0781-3.7734-1.6172-3.7734-1.0781-6.4688-3.2344-8.0859-7.5469-1.0781-3.7734-2.1562-7.0078-2.6953-10.777-0.53906-3.7734 0.53906-5.9297 4.3125-8.0859 1.6172 1.0781 2.6953 2.6953 1.0781 4.8516-1.6172 2.6953-0.53906 5.3906 1.0781 7.0078 2.6953 2.6953 5.3906 4.8516 8.625 7.0078 5.3906 3.2344 10.777 5.9297 16.707 9.1602 26.949 14.551 54.973 24.254 85.152 25.871 1.0781 0 2.1562 0.53906 2.6953 1.6172 4.3125 9.6992 11.855 16.707 18.863 23.715 4.8516 4.8516 8.0859 10.238 9.6992 17.246 2.1562 11.316 8.0859 20.48 18.324 26.949 8.625 5.3906 16.707 11.855 24.254 18.324 9.1602 8.0859 19.402 12.395 30.719 15.629 3.2344 1.0781 7.0078 1.0781 9.1602 4.8516 2.6953-4.8516 2.1562-13.473-2.1562-22.098 2.6953 1.0781 5.9297 2.6953 9.1602 4.3125 2.1562-4.8516 1.6172-10.238 0.53906-16.168 2.1562 1.0781 4.3125 1.6172 5.9297 2.1562v-1.0781c0-0.53906 0-1.0781-0.53906-1.6172-1.0781-4.8516-4.3125-7.5469-8.0859-10.238-3.2344-2.1562-5.3906-5.3906-7.0078-9.1602-0.53906-1.0781 0-2.1562 0-3.2344 1.0781 0 2.1562 0 2.6953 0.53906 1.6172 1.0781 3.2344 2.1562 5.3906 2.6953 0 0 0.53906 0 0.53906-0.53906-0.53906-1.0781-0.53906-2.1562-1.6172-3.2344-2.6953-2.6953-4.8516-4.8516-7.5469-7.0078-1.6172-1.6172-3.7734-3.2344-3.7734-5.3906-0.53906-2.1562 0.53906-3.2344 2.6953-3.7734h4.3125c-0.53906-1.0781-1.6172-2.1562-2.6953-2.6953-1.6172-1.0781-3.7734-2.1562-5.9297-3.2344-2.6953-1.6172-3.7734-3.7734-3.2344-5.9297 0.53906-2.6953 3.2344-2.1562 5.3906-2.6953 1.6172 0 3.2344-0.53906 5.3906-1.0781-1.0781-1.6172-2.1562-2.6953-2.6953-3.2344-2.6953-2.1562-5.3906-4.3125-8.0859-6.4688-3.2344-2.6953-3.2344-4.8516 0.53906-7.0078l3.2344-1.6172c0.53906-0.53906 1.6172-1.0781 2.6953-2.1562-6.4688-4.3125-14.012-6.4688-18.324-13.473 20.48-4.3125 40.961-8.625 58.746-18.863 3.2344 4.8516 5.9297 9.6992 9.1602 13.473 6.4688 8.0859 11.316 16.707 14.551 26.949 1.6172 5.3906 4.3125 9.6992 7.5469 14.012 5.9297 7.0078 13.473 12.395 20.48 17.785 0.53906 0.53906 1.6172 0.53906 2.1562 0.53906 1.6172-8.625 5.3906-9.6992 14.012-5.3906 1.6172-2.1562 2.6953-4.3125 1.6172-7.5469-0.53906-1.6172-1.0781-3.7734-1.6172-5.3906 0 0 0.53906 0 0.53906-0.53906 1.0781 0.53906 1.6172 1.0781 2.6953 1.6172 0.53906 0.53906 1.6172 0.53906 2.1562 0.53906 0-0.53906 0.53906-1.6172 0.53906-2.1562 0.53906-1.6172 0-4.8516 0.53906-8.625 0.53516-7.5195-1.6211-14.527-5.9336-20.996zm0 9.7031c-1.6172 0-2.6953-1.0781-3.7734-2.1562 1.6172-1.6172 2.6953-1.0781 3.7734 2.1562zm-49.043-23.715c-0.53906-2.6953 0-5.3906 2.1562-7.0078 2.6953-2.1562 5.3906-3.7734 8.625-6.4688-0.53906 1.0781-0.53906 2.1562-0.53906 2.6953-1.0781 2.6953-2.6953 4.8516-4.3125 7.0078-0.54297 3.2344-2.6953 4.3125-5.9297 3.7734zm4.8477 7.0078c-0.53906 0-0.53906 0.53906-1.0781 0.53906-2.1562-1.0781-3.7734-2.6953-5.9297-3.7734 1.6172-1.6172 3.7734-2.6953 5.3906-1.6172 0.54297 1.0781 0.54297 3.2344 1.6172 4.8516zm11.32-31.262c-7.0078 4.8516-14.012 9.6992-21.559 14.012 5.9297-5.9258 14.012-9.1602 21.559-14.012zm-21.02 7.0078c4.8516-2.6953 9.6992-4.8516 14.551-7.5469 0.53906 0 0.53906 0 0.53906 0.53906-4.8516 2.6953-9.6992 4.8516-15.09 7.0078 0.53906 0.53906 0.53906 0 0 0zm28.023-8.082c0 0.53906 0.53906 0.53906 1.0781 1.0781-9.1602 6.4688-18.324 12.934-28.023 18.863 8.0859-8.0859 17.785-13.477 26.945-19.941zm16.711 53.355c-0.53906 2.1562-2.1562 3.2344-4.8516 3.2344-0.53906 0-1.6172-1.6172-1.6172-2.1562 1.6172-1.0781 2.6953-2.1562 3.7734-3.7734 1.0781 1.0781 2.1562 2.1562 2.6953 2.6953zm-2.1562-4.3125c1.0781-4.8516 2.6953-4.8516 5.3906-2.1562-2.1562 0.53906-2.6953 3.7734-5.3906 2.1562zm-2.6953 1.6172c-0.53906 1.0781-1.6172 2.1562-2.1562 2.6953h-1.0781c0.53906-1.0781 0.53906-2.6953 0-3.7734h3.2344v1.0781zm-13.473-10.242c-0.53906 0-1.0781-1.6172-1.6172-2.6953 0-0.53906 0-1.0781-0.53906-2.1562h5.3906c0.53906 0 1.0781 0.53906 1.0781 1.0781 0.53906 1.0781 0 2.1562-0.53906 2.6953-1.082 0.53906-2.6953 1.6172-3.7734 1.0781zm3.7695 8.0859c0 1.6172-1.0781 2.1562-2.6953 2.1562-0.53906 0-1.6172-1.0781-1.6172-1.6172-0.53906-1.6172 1.0781-2.1562 2.6953-2.1562 0.53906 0 1.0781 1.0781 1.6172 1.6172zm-8.6211-14.551c0.53906-2.1562 1.0781-3.7734 2.1562-5.3906 0.53906-1.0781 1.6172-1.6172 2.6953-2.1562 1.0781-0.53906 2.1562 0.53906 1.6172 1.6172-0.53906 1.6172-1.0781 3.7734-2.1562 5.9297-1.0781 1.6172-2.6953 0.53906-4.3125 0zm2.1562 4.8477c-1.6172 0-3.7734 0-5.9297-0.53906 0.53906-1.6172 1.0781-3.2344 2.1562-3.2344 1.6172-0.53516 3.2344 1.6211 3.7734 3.7734zm3.2344-4.3086c0.53906-2.1562 1.6172-3.7734 2.6953-5.9297 1.0781 0.53906 1.6172 0.53906 2.6953 1.0781-0.54297 4.3125-1.082 4.8516-5.3906 4.8516zm7.0039 11.855c1.0781 0 2.1562 1.6172 2.1562 2.6953 0 2.6953-2.6953 1.6172-4.3125 1.6172-0.53906-3.2344 0.53906-4.8516 2.1562-4.3125zm-1.0781-4.8516c1.0781-1.6172 2.1562-1.0781 3.2344 0.53906-0.53906 1.0781-1.6172 2.6953-3.2344 2.1562-0.53906-0.53906-0.53906-2.1562 0-2.6953zm0.53906 10.242c1.6172-0.53906 2.6953 0.53906 2.6953 2.1562 0.53906 1.6172 0.53906 3.2344 1.0781 5.3906-1.6172-0.53906-3.7734-0.53906-4.3125-1.6172-1.0781-1.0781-1.0781-3.2344-1.0781-4.8516 0 0 1.0781-1.0781 1.6172-1.0781zm4.8516-17.246c2.1562 1.6172 3.2344 4.3125 2.1562 4.8516-0.53906 0.53906-2.6953 1.0781-3.2344 0.53906-1.6172-1.082-1.0781-2.1602 1.0781-5.3906zm-3.2344 1.6172c-1.6172 1.0781-2.6953 1.0781-2.6953-1.0781s0-4.3125 1.6172-5.9297c3.7734 2.1562 4.3125 4.3125 1.0781 7.0078zm-1.6172-8.625c-0.53906 0.53906-2.1562 0.53906-2.6953 0-0.53906-0.53906-1.6172-1.6172-1.0781-2.1562 0.53906-2.1562 1.0781-3.7734 3.2344-4.8516 2.1562 2.6953 2.6953 5.3906 0.53906 7.0078zm-1.6172-7.0078c-1.0781 1.0781-2.1562 1.6172-3.7734 0.53906 0 1.0781 1.0781 2.1562 0.53906 2.1562-1.0781 0.53906-2.1562 1.6172-3.2344 1.6172s-2.1562-1.0781-2.6953-2.1562c-1.0781-1.6172 0.53906-4.3125 2.6953-4.3125 0.53906-1.6172 1.6172-3.2344 2.6953-5.3906 1.6172 1.6172 3.2344 2.6953 3.7734 4.3125 0.53906 1.082 0.53906 2.6953 0 3.2344zm-5.3867-7.0039c-0.53906 1.6172-2.1562 2.6953-3.2344 3.7734-1.6172-1.6172-3.7734-3.2344-5.9297-4.8516 1.6172-1.6172 3.2344-2.6953 4.8516-3.7734 1.6172 0 4.8516 3.2344 4.3125 4.8516zm-4.8516 6.4648c-0.53906 2.1562-1.0781 4.3125-3.7734 4.8516-1.6172 0-3.2344-1.0781-4.8516-1.6172v-2.1562c1.0781-2.1562 2.1562-3.7734 3.2344-5.9297 1.0781 0.53906 2.1562 1.0781 2.6953 1.6172 1.0781 1.082 2.6953 1.082 2.6953 3.2344zm-7.5469 4.3125c1.0781 0.53906 2.1562 1.0781 3.2344 1.0781-0.53906 2.1562-1.0781 3.7734-1.6172 5.3906-0.53906 1.0781-2.1562 1.0781-3.2344 1.6172-0.53906 0-1.0781-1.0781-1.0781-1.6172-1.0781-1.0781-1.6172-2.6953-1.6172-4.3125 0-1.6172 2.6953-2.6953 4.3125-2.1562zm2.6953 4.8516c1.0781-1.6172 2.6953-3.2344 3.7734-5.3906 2.6953 1.0781 3.2344 2.6953 2.1562 4.3125-0.53906 1.0781-1.0781 1.6172-1.0781 2.6953-0.53906 2.1562-2.1562 2.1562-3.7734 1.6172-1.6172-0.53906-1.6172-2.1562-1.0781-3.2344zm5.9297 12.395c-1.6172 0.53906-3.2344 0.53906-4.8516 1.0781 1.6172-2.6953 2.6953-2.1562 4.8516-1.0781zm2.1562 2.6953c-1.0781 1.0781-2.1562 1.6172-3.2344 2.6953-0.53906-0.53906-0.53906-1.0781-1.0781-2.1562 2.1562-0.53906 3.2344-0.53906 4.3125-0.53906zm-2.1562 4.8516c0.53906 1.6172 1.6172 2.6953 2.1562 3.7734 0 0-0.53906 0-0.53906 0.53906-1.0781-0.53906-2.1562-1.0781-3.7734-1.6172 0.53906-1.0781 1.0781-1.6172 2.1562-2.6953zm1.0781 6.4648c-0.53906 0.53906-0.53906 1.6172-1.0781 1.6172h-2.6953c-0.53906-0.53906-0.53906-1.6172-0.53906-2.6914 0 0 0.53906-0.53906 1.0781-0.53906 0.53906 0 1.6172 1.0781 3.2344 1.6133zm-1.0781 3.2344c1.0781-0.53906 2.6953-1.0781 3.7734-1.0781 2.1562 0.53906 2.6953 1.6172 2.6953 3.7734v7.0078c-2.1562-3.2344-4.3125-5.9297-6.4688-8.625v-1.0781zm3.2344-3.7695c-0.53906-1.6172 1.6172-2.6953 4.8516-2.6953v5.9297c-2.1602-1.082-4.3125-1.082-4.8516-3.2344zm7.543 4.8477c3.2344 1.0781 4.8516 3.2344 5.3906 5.9297 0.53906 2.6953 1.0781 5.9297 1.6172 8.625-3.2344 2.1562-5.9297 1.0781-7.5469-1.6172-1.6172-2.6953-2.1562-6.4688-2.1562-10.777 0-2.1602 1.0781-2.6992 2.6953-2.1602zm5.9297-0.53906c0-0.53906 2.6953-2.1562 3.7734-1.6172 1.6172 0.53906 2.1562 2.6953 3.7734 4.3125-2.1562 1.0781-3.7734 2.1562-5.9297 3.2344-0.53906-2.1562-1.6172-3.7734-1.6172-5.9297zm5.9297-3.2344c2.6953-1.6172 4.3125-1.0781 5.9297 0.53906 1.0781 1.0781 1.0781 3.2344 0 4.3125-1.6172 1.0781-2.6953 1.0781-3.7734-0.53906-0.54297-1.6172-1.082-3.2344-2.1562-4.3125zm0-5.3867c1.0781-1.0781 2.1562-1.6172 3.7734-2.6953 1.0781 1.0781 2.1562 1.6172 2.6953 2.6953-1.6211 3.2344-5.3945 2.6953-6.4688 0zm3.2305-9.1641c1.6172 1.0781 2.1562 2.1562 0 3.7734-1.6172-1.6172-1.0781-2.6953 0-3.7734zm-1.6172-1.0781c-0.53906 1.6172-1.0781 2.6953-1.6172 3.7734-0.53906-0.53906-1.0781-0.53906-1.0781-1.0781-0.53516-1.6172 0.54297-2.1562 2.6953-2.6953zm-3.7695-7.543c2.1562 1.6172 2.1562 3.7734 2.1562 5.9297 0 0.53906-1.6172 1.0781-2.6953 1.6172-1.6172-2.6992 1.0781-5.3906 0.53906-7.5469zm0 11.855c-1.0781 1.6172-1.0781 3.7734-3.2344 3.7734-1.6172 0-3.7734-1.6172-2.6953-3.2344 0.53906-1.6172 2.1562-2.1562 3.7734-3.2344 1.0781 1.0781 1.6172 1.6172 2.1562 2.6953zm-2.1562-14.012c-1.0781 0-2.6953 0.53906-3.2344 0-1.0781-1.0781-2.6953-2.1562-2.1562-4.3125v-3.7734h3.7734c0.53906 2.6953 1.0781 5.3906 1.6172 8.0859zm-2.1562-10.242c0 0.53906-0.53906 1.0781-1.0781 1.0781-1.0781 0-2.6953 0-2.6953-0.53906-1.0781-1.6172-2.1562-3.7734-3.2344-5.9297 2.1562-0.53906 3.7734-1.0781 5.9297-1.6172 0.53906 2.1602 0.53906 4.3164 1.0781 7.0078zm-4.8516-15.629c1.0781 0.53906 2.1562 1.0781 3.2344 1.6172-0.53906 0.53906-0.53906 1.0781-1.0781 1.6172 0 1.0781 0.53906 2.1562 1.0781 3.7734h-1.0781c-1.0781-2.1562-1.6172-4.3125-2.6953-6.4688 0.53906 0 0.53906 0 0.53906-0.53906zm-1.6172 0.53906c1.0781 2.1562 1.6172 4.3125 2.6953 6.4688 0 0.53906-0.53906 1.0781-1.0781 1.6172-2.6953 1.6172-5.3906 0.53906-7.5469-3.2344 2.1562-1.6172 3.7734-3.2344 5.9297-4.8516zm-0.53906-2.1562v1.0781c-2.1562 1.6172-4.3125 3.2344-6.4688 5.3906-0.53906-0.53906-1.6172-0.53906-2.6953-1.0781 2.1562-1.6172 4.8516-3.2344 7.0078-4.8516 0.53906-1.0781 1.0781-0.53906 2.1562-0.53906zm6.4688-66.828c4.3125 3.7734 8.625 7.5469 12.934 11.316 1.0781 1.0781 1.0781 2.6953 1.0781 4.3125-0.53906 2.6953-1.0781 5.3906-2.1562 8.625-5.3906-5.9297-10.238-10.777-15.629-16.707 1.0781-2.1562 2.1562-4.8516 3.7734-7.5469zm-44.734-54.973c-4.8516-11.316-10.777-21.559-16.707-32.336 19.941 24.254 37.188 50.66 53.895 77.07-2.1562 1.6172-4.3125 2.6953-6.4688 3.7734 0.53906 1.6172 5.3906-1.0781 7.0078-1.6172 0 0 1.6172 0.53906 2.1562 0.53906 0.53906 0.53906 0.53906 2.1562 0.53906 2.6953-0.53906 4.3125-2.6953 7.5469-5.3906 11.316-1.0781-1.0781-1.6172-2.1562-2.1562-3.2344 1.6172-2.6953 3.7734-5.3906 5.3906-7.5469 0.53906-1.0781 1.0781-1.6172 1.0781-2.6953-2.1562 2.6953-7.0078 7.0078-7.0078 7.0078-0.53906-0.53906-1.6172-1.0781-1.6172-1.6172-6.4688-11.855-13.473-23.176-21.559-33.953-4.8516-6.4688-8.0859-13.473-11.855-20.48-5.9297-11.316-12.934-22.637-19.402-33.953-0.53906-1.0781-1.0781-1.6172-1.0781-2.6953 8.625 11.316 15.633 24.793 23.176 37.727zm-66.289 185.4c2.6953 0.53906 3.2344 1.0781 2.1562 2.6953-1.6172 2.1562-2.6953 4.8516-4.8516 7.0078-2.1562 2.6953-7.0078 2.1562-9.1602-0.53906v-1.6172l3.2344-6.4688c1.0781-1.0781 3.2344-1.6172 4.8516-2.1562v0.53906c1.6133 0 2.6914 0 3.7695 0.53906zm-78.688-32.336c-0.53906-0.53906-0.53906-2.1562-1.0781-3.2344h0.53906c0-1.0781 0.53906-2.6953 0.53906-3.7734 0-2.1562 1.0781-2.1562 2.6953-2.1562 3.2344 0.53906 6.4688 0.53906 9.6992 1.0781 0.53906 0 1.6172 0.53906 2.1562 1.0781 0.53906 0.53906 0.53906 1.0781 0.53906 1.6172 1.0781 2.1562 1.0781 3.7734-1.0781 4.8516-1.6172 1.6172-3.2344 4.3125-4.8516 3.7734-3.7695-0.003906-6.4648-1.6172-9.1602-3.2344zm7.0078 7.543c0 1.6172-0.53906 2.6953-1.0781 4.3125-0.53906 1.0781-0.53906 2.6953-2.6953 2.6953-1.6172 0-2.6953 0-3.2344-1.6172-1.0781-1.6172-2.1562-3.7734-3.2344-5.3906-1.0781-1.6172-1.0781-3.2344 0.53906-4.3125 1.0781-1.6172 2.6953-0.53906 3.7734-0.53906 1.0781 0.53906 2.1562 1.0781 3.2344 1.6172 2.1562 0.53906 3.2344 1.0781 2.6953 3.2344zm-86.23-43.113c-6.4688 0.53906-12.395 0-18.324-2.1562-5.3906-1.6172-11.316-3.2344-17.246-2.6953-0.53906 0-1.0781 0-1.6172-0.53906-1.0781-1.6172-2.1562-3.2344-3.2344-5.3906 3.2344 1.0781 5.9297 1.6172 8.625 2.1562 9.1602 2.1562 17.785 4.3125 27.484 3.7734 4.8516-0.53906 10.238-1.0781 15.09-1.0781 5.9297-0.53906 11.316 0 16.707 2.6953 7.5469 4.3125 15.09 8.625 22.637 12.934 0.53906 0 0.53906 0.53906 1.0781 1.6172-1.6172 0-2.6953 0-3.7734-0.53906-3.7734-1.0781-7.5469-2.1562-11.316-4.3125-11.859-5.3867-23.715-8.082-36.109-6.4648zm34.492 11.316c-12.395-2.6953-25.332-5.3906-37.727-8.0859 14.012-3.2305 26.406 0.53906 37.727 8.0859zm-23.176-171.93c14.551 1.6172 29.102 3.2344 43.117 4.8516 1.6172 0 2.1562 1.0781 2.6953 2.6953 3.7734 14.012 7.0078 28.562 11.316 42.578 1.0781 4.3125 0.53906 6.4688-2.1562 9.6992-3.2344 3.2344-6.4688 7.0078-9.6992 10.777l0.53906 0.53906c1.6172-1.6172 3.7734-3.2344 5.3906-5.3906 4.3125-4.3125 8.625-8.0859 12.395-12.395 1.6172-1.6172 2.6953-3.7734 1.6172-6.4688-2.1562-7.0078-3.7734-13.473-5.3906-20.48-2.1562-8.0859-3.7734-15.629-5.9297-23.715-0.53906-1.0781 0-2.1562-0.53906-3.2344h0.53906c0 0.53906 0.53906 1.0781 1.0781 1.6172 4.8516 16.168 9.6992 32.875 14.012 49.043 0.53906 0.53906 0 2.1562-0.53906 2.6953l-19.941 19.941c-2.6953 2.6953-3.2344 2.6953-7.0078 1.0781-3.2344-1.6172-5.9297-3.2344-8.625-4.8516-10.777-5.9297-21.02-12.395-31.797-18.324-7.5469-4.3125-13.473-9.6992-19.941-15.09-2.1562-1.6172-3.7734-3.2344-5.3906-4.8516 7.0078-9.6992 14.012-19.402 21.02-29.102 1.082-1.0742 2.1602-1.6133 3.2383-1.6133zm-2.6953-3.2305c0-1.0781 0-2.1562 1.6172-2.1562 4.3125 0 8.0859-0.53906 12.395-0.53906 12.395 0 24.254 2.1562 36.109 4.3125 1.6172 0 2.1562 1.0781 2.6953 2.6953 3.7734 11.855 6.4688 24.254 9.6992 36.648 0.53906 3.2344 1.6172 6.4688 2.1562 9.6992 1.0781 3.2344-1.0781 5.3906-2.6953 7.0078-4.3125-17.246-8.0859-33.953-12.395-51.738-10.777-1.0781-22.098-2.1562-33.414-3.2344-4.8516-0.53906-9.6992-0.53906-14.551-1.0781-0.53906-0.003907-1.6172-1.0781-1.6172-1.6172zm92.699-16.172c1.6172-1.0781 3.2344-1.0781 5.3906-0.53906 7.5469 1.6172 14.551 3.7734 22.098 5.3906 3.2344 0.53906 4.8516 2.1562 6.4688 4.8516 11.316 18.863 20.48 38.266 29.641 58.746 0.53906 1.0781 0.53906 1.6172 1.0781 2.6953-0.53906 1.0781-0.53906 2.1562-1.6172 2.6953-5.9297 5.3906-11.316 10.777-17.246 15.629-3.2344 2.6914-6.4688 2.6914-10.242 1.6133-14.551-4.3125-29.102-8.625-43.117-15.09 0 0-0.53906 0-0.53906-0.53906-5.3906-2.1562-8.625-5.9297-10.238-11.855-3.7734-14.012-8.0859-27.484-12.395-40.961-0.53906-2.1562-0.53906-3.7734 1.6172-4.8516 5.9297-3.2344 12.395-7.0078 18.324-10.777 3.7695-2.1562 7.0039-4.3125 10.777-7.0078zm-0.53906-5.9258s0-0.53906 0.53906-1.0781c4.3125 1.0781 8.625 1.6172 12.934 2.6953 5.3906 1.0781 10.777 2.6953 16.168 3.7734 1.6172 0.53906 2.6953 1.0781 1.6172 3.2344-3.7734-1.0781-8.0859-2.1562-11.855-2.6953-5.3906-1.0781-10.777-2.6953-16.168-3.7734-1.0781-0.53906-2.1562-1.6172-3.2344-2.1562zm-59.824 172.46c-4.3125-2.1562-6.4688-5.3906-8.0859-10.238-0.53906 3.2344 1.0781 7.0078 4.8516 10.777 2.6953 2.6953 5.9297 4.8516 9.6992 8.0859-1.6172-0.53906-2.6953-0.53906-3.2344-1.0781-4.3125-1.6172-8.625-3.2344-12.934-5.3906-8.0859-3.7734-16.707-4.8516-25.332-2.6953-5.9297 1.0781-11.855 1.6172-17.785 2.1562 11.855-2.6953 23.176-5.3906 31.258-15.629 0.53906 2.6953 2.1562 7.0078 2.6953 7.0078 1.0781-4.3125 3.2344-12.934 3.7734-12.934 0.53906 3.2344-0.53906 7.0078 1.0781 10.238 1.6172-5.3906 5.9297-15.629 5.9297-15.629-1.6133 10.238 1.6211 18.324 8.0859 25.328zm-4.3086-22.633c2.6953 6.4688 5.3906 14.012 8.0859 21.02-5.3945-2.6953-9.7031-15.094-8.0859-21.02zm-28.566-14.016c-2.1562 7.5469-7.5469 11.855-12.934 16.707 8.0859-2.6953 12.934-8.625 18.863-14.012-3.7734 6.4688-8.625 12.395-14.012 17.785-5.9297 5.3906-12.934 7.5469-21.02 8.625 4.3125-2.1562 11.316-7.0078 11.316-7.0078-7.0078 3.2344-14.012 5.3906-21.559 4.8516 2.6953-1.0781 5.3906-1.6172 8.0859-2.6953s5.9297-1.6172 7.5469-4.3125c-5.9297 1.6172-11.855 3.2344-17.785 2.6953 6.4688-2.1562 14.012-3.2344 19.941-7.0078s10.777-9.1602 15.629-13.473c-1.6172 2.6953-6.4688 9.6992-5.9297 10.238 4.8516-3.7695 8.6211-8.082 11.855-12.395zm-23.176 12.938c1.0781-2.1562 2.6953-4.3125 3.7734-6.4688s1.6172-4.3125 3.2344-6.4688c0 1.6172-0.53906 3.2344-0.53906 5.3906h0.53906c1.6172-2.1562 3.2344-4.8516 4.8516-7.0078-2.1562 7.0078-6.4688 11.32-11.859 14.555zm-9.1602 4.8477c9.1602-8.0859 13.473-19.402 16.707-31.258 0 9.1641-5.9297 29.102-16.707 31.258zm-1.6172-4.8477c7.0078-9.6992 11.316-21.02 15.09-32.336 0.53906 11.316-4.8516 26.945-15.09 32.336zm8.625-18.324c-2.1562 7.5469-5.9297 14.012-12.395 18.863-1.6172 1.0781-2.6953 2.6953-5.3906 1.6172 8.625-11.855 16.168-24.254 19.402-38.266 0.53516 5.9258-0.003906 11.855-1.6172 17.785zm35.57 9.6992c-4.8516 11.316-11.855 19.941-23.715 24.254-9.6992 3.2344-24.254 4.3125-29.102 1.0781 23.172 3.2344 39.879-6.4688 52.816-25.332zm-47.43 31.258c19.941-1.6172 37.727-5.9297 47.965-24.793-1.0781 5.3906-1.6172 11.316-5.9297 15.09-9.1602 7.5469-19.941 11.855-32.336 11.855-3.2344 0-6.4688-1.0781-9.6992-1.6172zm12.398 5.9297c7.5469 0.53906 15.09-0.53906 22.637-2.1562 9.1602-2.1562 18.324-1.0781 26.41 3.7734 4.3125 2.1562 8.0859 4.3125 12.395 6.4688 1.0781 0.53906 2.1562 1.6172 3.7734 2.6953 0 0 0 0.53906-0.53906 0.53906-0.53906 0-1.6172-0.53906-2.1562-0.53906-4.8516-2.1562-9.6992-3.7734-14.551-5.9297-8.625-3.7734-17.246-4.3125-26.41-4.3125-8.0859 0-16.168 0-23.715-0.53906-1.0781 0-1.6172 0-2.6953-0.53906 1.6172 0 3.2344 0 4.8516 0.53906zm39.879-49.582c-4.3125-3.2344-9.1602-6.4688-12.934-10.238-8.625-8.0859-16.168-17.246-24.254-25.871 0-0.53906-0.53906-0.53906-1.0781-1.6172 7.5469-4.3125 14.551-8.625 21.559-12.934 0.53906-0.53906 1.6172 0 2.1562 0 10.777 6.4688 21.02 12.934 31.258 19.402 8.0859 4.8516 5.9297 4.3125 1.6172 9.6992-4.3125 6.4688-9.1602 12.934-13.473 19.402-1.6172 2.6953-2.6953 3.2344-4.8516 2.1562zm-18.324-100.79c-4.8516 6.4688-9.6992 12.934-14.012 19.941-1.6172 2.1562-3.2344 4.8516-4.8516 7.5469-2.1562-1.0781-2.6953-2.1562-1.0781-4.3125 5.3906-7.5469 11.316-15.09 16.707-22.637 0.53906-1.0781 1.6172-2.1562 2.1562-3.2344 0.53906-0.53906 1.0781-1.0781 1.6172-1.6172 0.53906 0 0.53906 0.53906 1.0781 0.53906 0 1.0781-0.53906 2.6953-1.6172 3.7734zm-2.6914 49.047v0c-6.4688 4.3125-12.395 8.625-18.863 12.934-0.53906 0.53906-1.6172 0.53906-2.6953 0-2.6953-1.6172-5.3906-3.7734-7.0078-7.0078-3.7734-6.4688-7.0078-12.395-10.777-18.863-1.0781-2.1562-2.6953-4.3125-4.3125-6.4688 1.0781 0 2.1562-0.53906 3.2344-0.53906h16.707c1.0781 0 2.6953 0.53906 3.7734 1.6172 7.0039 5.9297 13.473 11.859 19.941 18.328zm-23.715 28.023c0.53906-1.6172 1.0781-3.7734 1.6172-5.9297 1.6172 12.395-2.1562 23.176-7.0078 34.492 0-1.6172 0-2.6953 0.53906-4.3125-1.6172 7.0078-4.3125 13.473-10.238 18.324 8.082-13.473 10.777-28.562 15.09-42.574zm50.66 26.949c7.0078-9.6992 14.012-19.402 21.02-29.102 1.6172 1.6172 3.2344 2.6953 4.3125 3.7734 6.4688 5.3906 13.473 9.6992 21.02 13.473 3.2344 2.1562 3.7734 2.1562 2.1562 5.3906-3.2344 6.4688-7.0078 12.934-10.777 19.941-12.398-4.3164-24.797-8.6289-37.73-13.477zm111.56 143.36 0.53906-0.53906c2.1562 1.0781 4.3125 2.1562 7.0078 3.7734-1.0781 1.0781-1.6172 2.1562-3.2344 3.7734-1.6172-2.6953-2.6953-4.8516-4.3125-7.0078zm0 15.09c-3.2344-1.0781-4.8516-2.6953-4.8516-5.9297 0-0.53906 0-1.6172-0.53906-2.1562-1.0781-3.7734-0.53906-4.8516 3.2344-6.4688 4.8516 4.8516 5.3906 7.5469 2.1562 14.555zm8.6211-11.316c2.6953 1.6172 4.3125 4.3125 3.7734 7.0078 0 0.53906 0 1.6172-0.53906 1.6172-0.53906 0-1.6172 0.53906-2.1562 0-1.6172-1.6172-3.2344-2.6953-3.7734-4.8516 0.54297-0.54297 2.1562-2.1602 2.6953-3.7734zm1.6172-1.0781c2.1562-0.53906 4.3125-1.6172 6.4688-2.1562-0.53906 2.1562 1.6172 4.3125-2.1562 5.3906-2.1562-0.003906-2.6953-1.6172-4.3125-3.2344zm5.3906-3.2344c-1.0781 0.53906-2.6953 2.1562-3.7734 0 0-0.53906-0.53906-0.53906-0.53906-1.0781-2.1562-4.8516-2.1562-4.8516 3.2344-5.9297 1.0781 1.6172 1.6172 3.2344 2.6953 4.3125 0.53906 1.0781-0.53906 2.1562-1.6172 2.6953zm-4.8516 2.1562c-3.7734-0.53906-7.0078-1.6172-9.1602-4.3125-1.6172-2.1562-0.53906-6.4688 2.1562-7.0078 1.0781 0 3.2344 1.0781 3.7734 2.1562 1.0742 3.2344 2.1523 5.9297 3.2305 9.1641zm-13.473-9.7031c-2.1562-1.0781-4.3125-1.6172-5.3906-3.7734-1.6172-3.2344-0.53906-5.9297 2.1562-8.0859 1.0781-1.0781 2.1562-1.6172 3.2344-2.6953 0.53906 1.0781 1.0781 2.6953 1.6172 3.7734 0.53906 2.1562 1.6172 3.7734 2.1562 5.9297 0.53906 1.0781 0.53906 1.6172 0.53906 2.1562-0.53906 2.6953-2.1562 3.7734-4.3125 2.6953zm-21.02-2.1562c1.0781-1.6172 2.6953-1.6172 3.7734 0 1.6172 2.1562 3.2344 4.3125 4.8516 6.4688 0.53906 1.0781 0 2.6953-1.0781 3.7734-1.0781 0.53906-1.6172 1.0781-2.6953 2.1562-3.7734-2.6953-6.4688-4.8516-9.1602-7.5469 1.6133-1.6172 2.6914-3.2344 4.3086-4.8516zm-4.3125 2.6953v-8.0859c2.1562-0.53906 3.2344-0.53906 4.3125 1.6172 0.53906 1.0781 0 2.1562-1.0781 2.6953-1.0781 1.0781-2.1562 2.1562-3.2344 3.7734zm-8.082-39.883c-0.53906-1.6172-0.53906-3.2344 1.6172-4.3125 1.6172-1.6172 3.7734-2.6953 5.9297-4.8516 0.53906 0.53906 2.6953 1.0781 3.2344 2.6953 0.53906 2.6953 1.0781 5.3906 0.53906 7.5469-0.54297 3.7734-5.9297 7.0078-11.32 7.5469 0-0.53906 0.53906-1.6172 0.53906-2.1562-0.53906-2.1562 0-4.3125-0.53906-6.4688zm-22.098-27.484c1.6172-1.6172 8.0859-1.0781 9.6992 0.53906 0.53906 1.0781 1.6172 2.1562 2.1562 2.6953 1.6172 2.1562 1.6172 4.3125 0.53906 6.4688-1.0781 2.1523-3.2305 2.1523-5.3867 2.1523h-1.0781c-2.1562 0-3.7734-0.53906-5.9297-0.53906-1.0781-0.53906-1.6172-1.0781-1.6172-2.1562 0.53906-2.6953 0.53906-5.3906 1.0781-8.0859 0-0.53516 0-1.0742 0.53906-1.0742zm-4.3125-3.7734c0.53906-2.6953 1.6172-4.8516 2.6953-7.5469 0.53906-2.1562 4.3125-3.2344 5.9297-2.6953 0.53906 0 1.0781 1.0781 1.0781 1.0781 0.53906 3.2344 1.0781 6.4688 2.1562 9.6992-4.3125 0.54297-8.0859 2.1602-11.859-0.53516zm19.402 11.855c0-0.53906 1.0781-0.53906 1.6172-0.53906 4.3125 1.0781 7.0078 3.7734 9.6992 7.0078 0 0 0.53906 0.53906 0 0.53906-1.6172 2.1562-2.6953 4.3125-4.8516 5.9297-0.53906 0.53906-2.6953 0-3.7734 0-3.7734-1.6172-5.3906-4.3125-5.3906-8.625 1.082-0.53906 1.6211-2.1562 2.6992-4.3125zm15.629 26.41c0.53906-0.53906 1.0781-1.0781 1.6172-1.6172 1.6172-2.6953 3.7734-2.6953 6.4688-2.1562 2.1562 0.53906 2.6953 1.6172 2.6953 3.2344s-0.53906 2.6953-0.53906 4.3125c-0.53906 2.6953-2.1562 4.3125-5.3906 4.3125-1.6172 0-3.2344 1.6172-4.3125-0.53906-1.6172-2.6953-3.2305-5.3906-0.53906-7.5469zm17.246-14.551c0.53906 0.53906 1.0781 1.6172 0.53906 2.1562l-7.5469 7.5469c-0.53906 0.53906-1.0781 0-1.0781 0.53906-3.7734 0-4.8516-1.0781-5.3906-4.8516-0.53906-3.7734-0.53906-5.9297 2.6953-6.4688 0-0.53906 0.53906-0.53906 0 0 5.3945-3.2344 7.0117-3.2344 10.781 1.0781zm-9.6992 24.789c0-0.53906 0.53906-1.0781 0.53906-1.0781 2.1562-1.6172 3.7734-2.6953 5.9297-4.3125 3.7734 2.6953 4.3125 5.9297 1.0781 8.625-1.0781 1.0781-2.1562 1.6172-3.2344 2.6953-1.0781 1.6172-2.6953 2.1562-4.8516 1.0781 0.53906-2.1562 0.53906-4.3125 0.53906-7.0078zm1.6172 9.7031c1.6172 0 4.8516 2.6953 4.3125 3.2344-1.6172 1.6172-2.6953 3.2344-4.8516 4.3125-1.0781 0.53906-3.2344-2.1562-3.2344-3.7734 0-1.6172 1.6172-3.7734 3.7734-3.7734zm0.53906 8.6211c1.6172-1.0781 3.2344-2.1562 4.3125-3.2344 0.53906 0 1.0781-0.53906 1.0781-0.53906 1.0781 1.0781 1.6172 2.1562 2.1562 3.7734 0 1.0781 0 2.1562-0.53906 2.6953-1.0781 1.0781-2.6953 1.6172-3.7734 2.6953-1.0781-2.1562-2.1562-3.7734-3.2344-5.3906zm5.9297-5.3867c-1.0781-1.0781-2.1562-2.1562-3.7734-4.3125 1.0781-1.0781 2.1562-2.1562 3.2344-2.6953 3.7734-3.2344 4.3125-3.2344 7.5469 0.53906-1.6172 2.1562-3.7734 4.3125-5.3906 6.4688zm3.2305-16.168c0-0.53906 0.53906-1.6172 1.0781-2.1562 1.6172-1.6172 3.2344-3.2344 4.8516-5.3906 2.1562 2.6953 4.8516 4.3125 5.3906 6.4688 1.0781 2.1562 0.53906 5.3906 0 8.0859 0 0.53906-2.6953 1.6172-3.7734 1.6172-4.3125-0.003906-7.5469-4.3164-7.5469-8.625zm-1.0781-2.1562c-0.53906-0.53906-1.6172-1.0781-2.6953-1.6172 2.1562-2.1562 4.3125-3.7734 6.4688-5.9297-0.53906 0-0.53906-0.53906-1.0781-1.0781-3.2344 2.6953-5.9297 5.3906-9.1602 8.0859v-8.0859c0-0.53906 0.53906-1.6172 1.0781-2.1562 1.6172-2.1562 3.7734-4.3125 5.9297-5.9297 0.53906-0.53906 1.6172-1.0781 2.1562-0.53906 3.2344 0.53906 6.4688 1.6172 9.6992 2.6953-2.1562 7.0078-8.625 9.1641-12.398 14.555zm11.32-16.168c-0.53906 0-1.0781-0.53906-1.6172-0.53906-5.9297-1.0781-10.238-5.3906-15.629-8.625-0.53906 0-0.53906-0.53906-1.0781-1.0781 0-0.53906-0.53906-0.53906-1.0781-1.6172 1.6172 0 2.6953 0 3.7734 0.53906 1.0781 0 1.6172 0.53906 2.6953 0.53906 8.0859-2.1562 11.855 4.8516 17.246 8.0859-0.53906 2.6953-1.6172 3.7734-4.3125 2.6953zm-7.5469-11.32c-7.0078-0.53906-14.551-1.0781-21.559-1.6172v0.53906c2.6953 0 5.3906 0 8.0859 0.53906 0.53906 0 2.1562 0.53906 2.1562 1.0781 0 1.0781-0.53906 2.1562-1.0781 2.6953-5.9297 3.7734-7.5469 3.2344-11.855-1.6172-2.1562-2.6953-4.8516-5.9297-8.0859-6.4688-4.3125-1.0781-5.3906-3.7734-7.5469-6.4688-2.6953-3.2344-4.3125-7.0078-4.8516-11.855 0-2.6953-0.53906-4.8516 0-7.0078 0-1.6172 1.0781-2.6953 1.6172-4.3125-1.6172 0-2.1562 1.6172-2.6953 2.6953-0.53906 3.7734-2.6953 5.3906-5.9297 5.3906-1.0781 0-2.1562 0-2.6953-0.53906-1.0781-0.53906-2.1562-1.6172-3.7734-2.6953 3.7734-2.6953 7.0078-5.3906 10.777-7.5469 4.8516-2.6953 12.934-1.0781 15.629 2.1562-2.6953 0-5.3906 0-7.5469 0.53906 3.2344 1.0781 6.4688 2.1562 10.238 2.6953v0.53906c-3.2344 0-7.0078-0.53906-10.238-0.53906v1.0781c6.4688 0.53906 12.395 1.6172 18.324 6.4688-4.8516-1.0781-8.625-2.1562-12.395-2.6953v0.53906c5.9297 3.7734 12.395 7.5469 18.324 11.316v0.53906c-4.3125-2.1562-8.0859-3.7734-12.395-5.9297v0.53906c4.8516 2.6953 9.6992 5.9297 15.629 9.1602-5.3906-0.53906-9.6992-1.0781-14.551-1.6172v0.53906c4.8516 1.6172 10.238 2.6953 15.09 4.3125 5.3906 1.6172 9.1602 4.3125 13.473 8.0859-2.1484-1.0742-2.1484-0.53516-2.1484-0.53516zm-11.855-20.48s-0.53906 0-0.53906 0.53906c-0.53906-0.53906-1.0781-1.6172-1.6172-2.6953-1.6172-3.2344-3.7734-7.0078-5.3906-10.238-0.53906-0.53906-1.0781-1.0781-1.6172-1.6172 2.1562 3.7734 4.3125 7.5469 4.8516 11.316 0 0-0.53906 0-0.53906 0.53906-1.6172-4.3125-3.7734-8.625-5.3906-12.395-0.53906-0.53906-1.0781-1.0781-1.6172-2.1562-5.3906-8.0859-13.473-11.855-22.637-12.934-4.3125-0.53906-8.0859-0.53906-12.395-1.0781 2.6953-0.53906 5.9297-1.0781 8.625-1.0781 7.0078-0.53906 13.473 1.6172 19.402 5.3906 4.3125 2.6953 8.0859 5.3906 11.855 8.0859 0.53906 0.53906 1.0781 0.53906 1.6172 0.53906 1.6172 1.6172 2.1562 3.7734 3.7734 5.3906 3.7734 3.7734 5.9297 8.625 4.8516 14.012-1.0781-3.7734-2.6953-7.0078-3.7734-10.777h-0.53906c0.53906 3.2305 1.0781 6.4609 1.0781 9.1562zm-25.871-36.109c-5.9297-2.6953-11.855-4.8516-17.785-7.0078-3.2344-1.0781-7.0078-1.6172-10.777-2.6953 4.3125-7.0078 8.625-13.473 12.934-20.48 1.6172-2.1562 4.3125-2.1562 6.4688-1.0781 10.238 4.3125 19.941 9.1602 29.641 13.473 5.9297 2.6953 11.316 4.8516 17.246 7.0078 2.1562 1.0781 3.2344 2.1562 3.7734 4.3125 1.0781 8.0859 2.1562 15.629 3.2344 23.715v3.2344c-4.8516-2.1562-10.238-4.3125-15.09-6.4688-9.7031-4.3086-19.402-9.1602-29.645-14.012zm-30.18-3.2344c-4.3125 3.7734-10.238 5.3906-14.012 10.777 2.6953-6.4648 8.6211-8.6211 14.012-10.777zm5.3906 0.53906c-7.5469 4.8516-14.551 10.238-18.863 18.324 0-8.082 9.6992-15.09 18.863-18.324zm-7.0078 7.0078c3.7734-2.6953 7.5469-4.8516 12.934-4.3125-10.777 3.7734-17.246 10.777-19.941 21.559-1.0781 3.2344-1.6172 6.4688-2.6953 9.6992-3.2305-8.6211 1.082-21.016 9.7031-26.945zm-4.3125 19.941c0-1.6172 0.53906-2.6953 1.0781-4.3125 2.1562-6.4688 5.9297-10.777 13.473-11.316 10.777-0.53906 20.48 0.53906 29.641 6.4688 4.3125 2.6953 5.9297 7.0078 7.5469 11.855-2.6953-2.6953-5.3906-4.8516-8.0859-7.0078-6.4688-4.3125-13.473-4.3125-19.941-0.53906-3.2344 2.1562-5.9297 4.3125-9.1602 6.4688-1.0781 1.0781-2.1562 1.6172-3.2344 0-1.0781-1.0781-2.1562-2.6953-0.53906-4.3125 2.1562-1.6172 3.7734-3.2344 5.3906-5.3906-5.9297 3.2344-10.777 8.0859-16.168 12.395 2.6953-8.625 8.625-14.012 17.785-15.629-5.9258 0.54297-12.934 2.6953-17.785 11.32zm8.625 0c2.6953 3.2344 2.6953 3.2344 0 6.4688-1.0781 1.6172-2.6953 2.6953-4.3125 4.8516-0.53906-4.3125 1.0781-8.625 4.3125-11.32zm-1.0781 11.316c1.0781-2.6953 3.7734-4.8516 5.9297-7.0078 1.0781-1.0781 4.8516 2.1562 4.8516 4.3125-1.0781 4.8516-2.1562 9.6992-8.0859 11.316-1.0781 0-1.6172 0-2.6953 0.53906 0-3.7695-1.0781-7.0039 0-9.1602zm3.7734 14.555c0-4.8516 1.0781-6.4688 4.8516-7.5469 1.6172-0.53906 3.7734 1.0781 3.7734 2.6953 0 2.6953-0.53906 5.3906-1.0781 8.0859-0.54297 3.2305-2.1602 3.2305-4.8516 2.6914-3.7734-1.0781-3.2344-3.7734-2.6953-5.9258zm15.09 29.102v-1.0781c0-4.8516 3.2344-7.5469 6.4688-10.238 1.0781-1.0781 2.1562-1.0781 3.7734-0.53906 4.3125 1.6172 5.9297 3.7734 5.3906 8.625-0.53906 2.1562-0.53906 4.8516-1.0781 7.5469 0 0.53906-0.53906 1.6172-1.6172 1.6172-2.1562 1.0781-4.3125 1.6172-6.4688 2.6953h-0.53906c-2.1562-1.6172-4.3125-3.2344-5.9297-4.8516-0.53906-1.082 0-2.6992 0-3.7773zm12.934 8.0859s1.0781 0.53906 1.0781 1.6172c1.0781 1.6172 1.6172 3.7734 2.1562 5.9297 1.0781 1.6172 0 2.6953-1.0781 3.7734-1.6172 1.0781-2.6953 2.6953-4.8516 1.0781-0.53906-0.53906-1.6172-1.0781-2.6953-1.6172-2.1562-0.53906-2.6953-1.6172-2.6953-3.7734 0.54297-3.7773 3.2344-7.0078 8.0859-7.0078zm7.5469 9.6992c2.1562 0 2.1562 2.1562 2.6953 3.2344 0.53906 1.6172-1.0781 1.6172-1.6172 1.6172-1.6172 0.53906-3.7734 1.0781-5.3906 1.6172-1.0781 0-2.1562-0.53906-3.2344-0.53906-0.53906-0.53906-0.53906-0.53906-0.53906-1.0781 2.1562-2.1562 4.3125-4.8516 8.0859-4.8516zm1.0781-2.6953c-1.0781 1.6172-2.6953 1.0781-3.2344-0.53906-1.0781-2.1562-1.6172-4.3125-2.6953-6.4688-1.0781-3.2344 2.6953-6.4688 5.3906-5.3906 0.53906 0 1.0781 0.53906 1.6172 1.0781 0.53906 1.6172 1.0781 3.7734 1.6172 5.9297-0.53906 2.1562-1.6172 3.7734-2.6953 5.3906zm4.3086-3.7734c1.0781-1.6172 3.2344-1.6172 4.8516-1.0781 1.0781 0.53906 1.0781 1.6172 1.6172 2.6953-1.0781 2.6953-1.6172 5.3906-2.6953 8.0859-0.53906 0.53906-1.6172 1.6172-2.6953 1.6172-1.0781 0-2.1562-0.53906-2.6953-2.1562-1.0742-3.2344-0.53516-6.4688 1.6172-9.1641zm-1.6133 27.488c0-1.0781 1.0781-1.0781 1.6172-0.53906 2.1562 1.6172 3.7734 3.2344 5.9297 4.8516 0.53906 0.53906 1.0781 1.0781 1.0781 1.6172-0.53906 3.2344-1.0781 5.9297-1.6172 9.1602h-1.0781c-1.0781-1.6172-2.1562-3.7734-3.2344-5.3906-1.0781-2.1562-2.1562-4.8516-3.2344-7.0078 0-0.53516 0-1.6133 0.53906-2.6914zm9.6992 10.238c0-1.0781 0.53906-2.6953 0.53906-3.7734 1.0781-3.7734 4.8516-5.3906 8.0859-2.6953 0.53906 0.53906 1.0781 1.0781 1.6172 1.6172 2.6953 3.7734 3.2344 13.473 0.53906 18.324-2.6953-1.6172-5.3906-3.7734-8.0859-5.3906-1.6172-1.0781-3.2344-1.6172-3.7734-2.6953-0.53906-1.6133 0.53906-3.2305 1.0781-5.3867zm12.395-7.0039c-1.6172 0.53906-5.9297-3.7734-6.4688-5.9297v-1.0781c2.6953-3.2344 5.9297-3.7734 9.1602-1.0781 1.0781 0.53906 1.6172 2.1562 2.6953 3.2344-0.53906 1.0781-0.53906 1.6172-1.0781 2.1562-1.0742 1.0781-2.6914 2.1562-4.3086 2.6953zm1.0781 22.633c0.53906-2.6953 1.0781-5.3906 2.1562-8.625 2.1562 1.0781 4.3125 2.1562 5.9297 3.2344 1.0781 1.0781 2.1562 3.2344 2.1562 4.8516 0 4.3125-1.0781 8.0859-1.6172 12.934-3.2344-4.3125-5.3906-7.5469-8.0859-10.777-1.0781-0.53906-1.0781-1.0781-0.53906-1.6172zm10.242-15.629c1.6172 1.6172 3.2344 3.2344 3.7734 4.8516 0 1.6172-1.0781 3.7734-2.1562 5.9297-4.3125-3.7734-4.3125-5.9297-1.6172-10.781zm1.6172 18.863c0-0.53906 2.1562-1.0781 2.6953-0.53906 2.1562 1.6172 5.3906 3.2344 7.0078 5.9297 2.6953 4.8516 4.8516 10.238 7.0078 15.629 1.0781 2.1562-0.53906 3.7734-4.3125 3.7734-1.0781-0.53906-2.6953-1.0781-4.3125-2.1562-3.2344-3.2344-5.9297-6.4688-8.625-9.6992-0.53906-0.53906-0.53906-1.0781-0.53906-1.6172 0-4.3125 0.53906-8.0859 1.0781-11.32zm10.238 0c-2.6953-0.53906-5.3906-2.1562-8.0859-3.2344-2.1562-1.0781-1.6172-2.6953-1.0781-4.3125 0.53906-1.6172 1.6172-3.2344 2.6953-4.8516 1.6172-2.1562 2.6953-1.6172 4.3125 0.53906 1.0781 2.1562 2.1562 4.3125 3.7734 6.4688 1.0781 1.6172 1.0781 2.6953 0 3.7734-0.53906 0.53906-1.0781 1.6172-1.6172 1.6172zm-1.6172-17.785c0-2.6953 1.0781-3.7734 3.7734-3.2344 2.6953 0 4.3125 1.0781 4.3125 2.6953 0 3.2344-2.1562 5.3906-4.8516 5.3906-2.1562-0.53906-3.2344-2.1562-3.2344-4.8516zm7.5469-6.4648c-0.53906 0.53906-1.6172 1.0781-2.6953 1.0781-0.53906 0-1.0781-1.6172-1.0781-2.1562 0-3.7734 2.1562-5.3906 5.9297-3.2344-0.53906 1.6172-1.0781 3.2344-2.1562 4.3125zm0-6.4688c-4.8516 0.53906-7.5469-3.7734-4.8516-8.0859 1.0781-2.1562 2.1562-3.7734 3.2344-5.3906 1.6172 2.6953 3.2344 4.8516 4.8516 7.5469 0.53906 1.0781 0.53906 2.6953 0 3.7734-0.53906 1.0781-1.6172 2.1562-3.2344 2.1562zm-15.629-15.629c-1.0781 2.1562-2.1562 4.3125-3.7734 7.0078-1.0781-3.2344-2.1562-5.3906-2.6953-7.5469-0.53906-1.6172 0.53906-2.6953 1.6172-3.2344 1.6172-1.0781 3.2344-0.53906 4.3125 0.53906s1.0781 2.1562 0.53906 3.2344zm-3.2344-17.246c-4.8516-4.8516-4.8516-4.8516-1.6172-9.1602 1.0781-1.6172 2.6953-3.7734 3.7734-5.3906 1.0781-1.6172 2.1562-0.53906 3.2344 0 1.0781 0.53906 2.1562 1.0781 2.6953 1.6172-1.6172 4.8516-1.0781 9.6992-5.3906 12.934-1.0781 1.0781-2.1562 1.0781-2.6953 0zm-1.6172-32.34c-0.53906 0.53906-1.6172 0.53906-2.1562 0-2.6953-1.6172-4.8516-3.2344-6.4688-4.3125 3.2344-5.3906 6.4688-10.777 9.6992-16.168 3.2344 1.6172 7.0078 2.6953 10.777 4.3125 2.1562 1.0781 2.1562 1.6172 1.0781 3.7734-3.2305 5.3906-8.0781 8.625-12.93 12.395zm-3.7734-65.211c-7.0078-2.6953-14.012-5.9297-21.02-9.1602 7.0078 2.6953 14.551 5.3906 21.559 8.0859v-0.53906c-0.53906-0.53906-1.6172-0.53906-2.1562-1.0781-8.625-3.2344-16.707-6.4688-25.332-9.6992-3.7734-1.6172-7.0078-3.2344-10.777-4.8516-0.53906 0-1.0781-0.53906-1.0781-0.53906-4.3125-1.6172-8.0859-2.6953-12.395-4.3125-7.0078-2.6953-14.012-5.3906-20.48-8.625-7.0078-3.2344-7.0078-5.3906-2.1562-10.777 4.8516-5.3906 10.238-10.777 15.629-15.629 3.2344-3.2344 3.7734-3.2344 7.5469-1.0781 11.855 6.4688 25.332 10.238 38.266 14.012 4.3125 1.0781 8.0859 2.1562 12.395 3.2344 0.53906 0.53906 2.1562 1.0781 2.1562 2.1562 0.53906 11.855 3.7734 23.176 5.9297 35.031 0 4.3125 0 4.3125-4.3125 4.3125-1.0781-0.003906-2.6953-0.003906-3.7734-0.54297zm5.9297-26.406c-0.53906-3.2344-1.0781-7.0078-1.0781-10.238 0-1.6172 0.53906-2.6953 1.6172-3.2344 8.625-5.3906 16.168-12.395 22.637-19.941 1.0781-1.0781 1.6172-1.6172 3.2344-0.53906 7.5469 4.8516 15.629 9.6992 23.176 14.551 1.6172 0.53906 2.6953 2.6953 2.6953 4.3125 4.8516 15.629 9.1602 31.258 13.473 46.887 0.53906 1.0781 0.53906 1.6172 0.53906 3.2344-1.6172 0-3.2344 0.53906-4.8516 0.53906-18.863 1.0781-37.188-1.0781-55.512-6.4688-0.53906 0-1.6172-1.0781-1.6172-1.6172-1.0781-9.6992-2.6953-18.324-4.3125-27.484zm56.59-14.016c0-0.53906-0.53906-1.6172-0.53906-2.1562 9.6992-1.0781 17.785-4.8516 25.332-10.777 1.6172 1.6172 2.6953 3.7734 4.3125 5.9297 7.0078 10.238 13.473 20.48 20.48 30.719 1.6172 2.6953 3.7734 4.8516 6.4688 7.5469-1.6172 1.0781-2.6953 2.6953-4.8516 3.7734-10.777 6.4688-22.098 11.316-35.031 12.395-1.6172 0-2.6953 0-2.6953-1.6172-4.8555-15.09-9.168-30.184-13.477-45.812zm-20.48-91.082c-4.3125-1.6172-8.625-2.6953-12.934-4.3125-3.7734-1.0781-7.5469-1.6172-11.316-2.6953-1.0781 0-1.6172-1.0781-2.6953-1.6172 8.082-1.0742 22.094 3.2383 26.945 8.625zm-24.254-12.395c-2.1562 1.6172-4.3125 1.6172-5.9297 0-2.6953-2.1562-5.9297-4.3125-9.1602-6.4688 5.3906 2.1562 10.238 4.3125 15.09 6.4688zm-4.8516 4.8516c-4.8516 2.6953-9.6992 5.3906-14.012 8.0859 7.5469 11.316 14.551 22.098 21.559 32.875-4.3125-11.316-11.316-21.559-17.785-32.336 1.6172-1.0781 3.2344-2.1562 4.8516-3.2344l0.53906 0.53906c-1.0781 1.0781-2.1562 2.1562-3.2344 2.6953 2.1562 3.7734 4.8516 7.5469 7.0078 11.316 4.8516 10.238 9.6992 19.941 14.551 30.18 2.6953 4.8516 4.8516 10.238 7.5469 15.09 0.53906 0.53906 1.0781 1.6172 1.6172 2.1562-9.1602-19.402-15.09-39.883-28.562-57.668 3.2344-2.1562 5.9297-4.3125 8.625-5.9297 1.0781-0.53906 3.2344 0 4.8516 0 6.4688 1.6172 13.473 3.7734 19.941 5.9297 1.6172 0.53906 3.2344 1.6172 3.7734 3.2344 10.238 17.785 19.941 36.109 29.641 53.895 1.6172 2.6953 2.6953 5.9297 4.3125 9.1602-4.3125 1.6172-8.0859 3.2344-11.855 4.8516v0.53906c4.3125-1.6172 9.1602-3.2344 13.473-4.8516-8.625-23.176-22.637-43.656-34.492-65.211l0.53906-0.53906c0.53906 0.53906 1.0781 1.6172 1.6172 2.1562 7.0078 10.777 13.473 22.098 20.48 32.875 5.9297 10.238 10.777 20.48 16.707 30.18 0 0.53906 0.53906 1.0781 1.0781 1.6172 1.6172 2.1562 1.0781 4.8516-1.0781 5.9297-5.3906 3.7734-11.316 6.4688-17.785 8.0859-3.7734 1.0781-7.0078-0.53906-9.6992-2.1562-7.5469-4.8516-15.09-9.6992-23.176-14.012-2.1562-1.6172-3.7734-3.2344-4.8516-5.3906-7.0078-14.012-14.012-28.023-21.559-42.039-3.2344-6.4688-7.0078-13.473-10.777-19.941-1.0781-2.1562-0.53906-3.2344 1.0781-4.3125 3.2344-1.6172 7.0078-3.2344 10.777-4.8516 0.53906 0 1.0781-0.53906 1.6172-0.53906-7.0078-4.3125-13.473-8.625-19.402-12.934 4.3008 0.53906 16.699 8.0859 22.086 14.555zm-9.1602-1.6172c-5.3906-2.6953-10.777-6.4688-15.629-9.6992 5.9258 1.6133 11.316 5.3867 15.629 9.6992zm-49.043-11.859c9.1602-2.1562 18.324 0 27.484 1.0781 1.6172 0 3.2344 0.53906 4.3125 1.6172 4.8516 3.2344 9.6992 6.4688 15.09 9.6992-4.3125 3.2344-8.625 3.7734-13.473 2.6953-7.5469-1.6172-14.551-3.2344-22.098-4.8516-1.6172-0.53906-3.2344-1.0781-4.3125-2.1562-3.7734-3.2344-7.5469-7.0078-11.316-10.777 4.3125-2.6953 31.258-0.53906 35.031 2.6953-4.8516-0.53906-10.238-1.0781-15.629-1.6172-5.3906-0.53906-10.777-1.0781-16.168 1.0781 0.53906 0.53906 1.0781 0.53906 1.0781 0.53906zm26.406-2.6914c-8.625-0.53906-17.785-1.6172-26.949-2.1562-1.6172 0-3.2344 0.53906-4.8516 0.53906-1.6172 0-2.6953-1.0781-4.3125-2.1562 7.0117-1.6172 31.801 0.53906 36.113 3.7734zm-40.422-4.8516c5.9297 5.3906 12.395 10.777 18.324 16.168 0.53906 0.53906 0.53906 1.0781 1.0781 1.6172-7.5469-6.4688-15.09-12.395-22.098-18.863 0.53906 0 1.6172 0 2.6953 1.0781zm-10.238-2.1562c0.53906 0 1.0781 0 1.6172 0.53906 8.625 6.4688 17.246 13.473 25.871 19.941v1.6172c-4.8516 2.6953-9.6992 4.8516-14.551 7.5469 0 0 0-0.53906-0.53906-0.53906 4.3125-2.6953 9.1602-4.8516 14.012-7.5469-7.5469-5.3906-12.934-12.934-21.559-16.168-3.2344-1.6172-7.0078-1.6172-10.777-2.1562-1.0781 0-2.1562-0.53906-3.7734-1.0781 3.2305-1.0781 6.4648-1.6172 9.6992-2.1562zm-58.207 19.941c7.0078-3.2344 13.473-6.4688 20.48-9.1602 7.0078-2.6953 14.012-4.3125 21.559-6.4688 8.625-2.1562 17.246-0.53906 24.254 4.8516 4.8516 3.2344 9.1602 7.5469 14.012 11.855-1.0781 1.0781-1.6172 1.6172-2.1562 1.6172-7.0078 4.3125-13.473 8.625-20.48 12.934-2.1562 1.6172-3.7734 1.6172-6.4688 1.0781-13.473-2.1562-27.484-3.7734-41.5-2.6953-1.6172 0-2.6953 0.53906-3.7734 1.0781 5.3906 0 10.777-0.53906 16.168 0 10.238 1.0781 19.941 2.6953 29.641 4.3125 2.6953 0.53906 4.3125 0 6.4688-1.0781 8.0859-4.3125 15.629-8.0859 23.715-11.855 2.1562-1.0781 3.7734-2.1562 5.9297-3.2344 1.6172 1.6172 1.6172 1.6172-0.53906 3.2344-9.6992 5.3906-19.402 10.777-29.102 16.168-1.6172 1.0781-3.2344 1.0781-5.3906 0.53906-14.551-3.7734-29.641-5.9297-44.734-5.3906-3.2344 0-5.9297 0.53906-9.1602 0.53906-0.53906-5.3906-1.6172-10.777-2.1562-16.168 1.0781-0.53906 2.1562-2.1562 3.2344-2.1562zm-7.5469 1.0781c2.1562 2.6953 4.3125 18.324 3.2344 21.559-0.53906-0.53906-1.0781-1.6172-1.0781-2.1562-1.0781-4.8516-2.1562-9.6992-2.6953-14.012-1.0742-1.6172 0-3.2344 0.53906-5.3906zm-40.957 46.348h16.168c0 0.53906-2.1562 2.1562-3.2344 2.6953 3.7734 1.6172 4.3125 1.0781 6.4688-2.6953 3.7734-6.4688 8.0859-12.395 12.934-18.863 1.6172-2.1562 2.1562-3.7734 2.1562-5.9297-0.53906-3.2344-0.53906-5.9297-1.0781-9.1602 0 3.2344 0.53906 6.4688 0.53906 9.6992 0 1.6172-0.53906 3.2344-1.6172 4.3125-4.3125 5.3906-8.625 10.777-12.934 16.707-1.0781 1.6172-2.1562 2.1562-3.7734 2.1562h-17.246c11.316-15.629 22.637-30.18 38.266-40.422 1.0781 5.3906 2.1562 10.777 2.6953 16.168 0.53906 1.6172 0.53906 3.2344-0.53906 4.8516-7.0078 8.625-13.473 17.785-20.48 26.41-0.53906 0.53906-2.1562 1.0781-3.2344 1.0781-6.4688 0-12.934-0.53906-19.402-0.53906-1.0781 0-2.6953 0.53906-3.7734 0.53906 1.6172-5.3906 3.7734-7.0078 8.0859-7.0078zm-29.645-8.082c0.53906 4.3125 1.0781 8.0859 1.6172 12.395l-3.7734-14.551c1.0781 0.53906 2.1562 1.0781 2.1562 2.1562zm-2.6953 8.6211c0 2.6953-2.6953 5.9297-4.3125 6.4688-0.53906 0-1.0781 0-1.6172-0.53906-2.1562-1.6172-4.3125-3.2344-5.9297-5.3906-0.53906-0.53906-1.0781-2.1562-0.53906-2.6953 0.53906-2.6953 1.0781-5.9297 1.6172-9.1602 0-1.6172 0.53906-2.1562 2.1562-2.1562 6.4688-0.53906 5.3906-1.0781 6.4688 4.8516 1.082 3.2344 1.6172 6.4648 2.1562 8.6211zm-6.4648 11.32c-1.0781 3.7734-2.6953 7.5469-4.3125 11.316-1.6172 3.2344-5.3906 4.3125-9.1602 4.8516-0.53906 0-1.6172-0.53906-1.6172-1.0781-0.53906-5.9297-1.0781-12.395-1.6172-18.324 0-0.53906 0.53906-1.0781 1.0781-1.6172 2.6953-1.6172 5.3906-2.6953 8.625-4.3125 2.1562 1.6172 4.3125 3.7734 6.4688 5.9297-0.003906 0.53906 0.53516 2.1562 0.53516 3.2344zm-6.4688-36.109c3.2344 3.2344 6.4688 5.9297 9.6992 9.1602-4.3125 0.53906-7.5469 1.6172-10.238-2.6953-2.1562-2.1562 0-3.7734 0.53906-6.4648zm-26.406-12.398c7.0078 3.2344 14.012 7.0078 21.559 10.777 2.1562 1.0781 2.6953 2.1562 1.6172 4.3125h-0.53906c-7.0078-3.2344-14.012-6.4688-21.559-9.6992-3.7734-1.6172-6.4688-4.3125-8.625-8.0859 2.6953 1.0781 5.3906 1.6172 7.5469 2.6953zm-7.5469 0c2.1562 4.8516 6.4688 7.5469 11.316 9.1602 3.7734 1.6172 7.5469 3.2344 11.316 4.3125 4.8516 1.6172 8.0859 5.3906 11.316 9.1602 0.53906 0.53906 0.53906 2.1562 0.53906 2.6953-1.0781 3.2344-1.6172 7.0078-2.6953 10.238-1.0781 3.7734-7.0078 6.4688-11.316 4.8516-1.0781-0.53906-2.1562-1.0781-2.6953-1.0781-6.4688-3.2344-12.395-7.0078-18.863-10.238 1.6172-1.6172 3.2344-3.2344 4.3125-5.3906 1.6172-2.6953 3.7734-5.3906 4.8516-8.0859 1.6172-3.7734 0.53906-6.4688-3.2344-8.0859-4.3125-2.1562-4.8516-5.9297-6.4688-9.1602-0.53516-0.53516 1.082 0.54297 1.6211 1.6211zm-35.57 20.48c2.1562 0 3.7734 0 5.9297 0.53906 10.777 2.1562 19.941-7.5469 17.785-18.324v-1.6172c1.0781 0 1.6172 0.53906 2.1562 0.53906 0 3.2344 0 5.9297-0.53906 9.1602-0.53906 2.1562-1.6172 4.8516-3.2344 6.4688-4.8516 5.3906-10.777 7.5469-18.324 6.4688-2.1562-0.53906-4.8516-0.53906-7.0078-1.0781 0 0 2.1562-2.1562 3.2344-2.1562zm-1.0781-7.0039c1.0781-5.9297 3.7734-10.777 9.1602-13.473 5.3906-2.6953 10.238-1.0781 15.09 0.53906v1.0781c-2.1562 0.53906-4.8516 1.0781-7.0078 1.0781-7.0078 0.53906-12.395 3.7734-16.168 9.6992-0.53516 0-1.0742 0.53906-1.0742 1.0781zm36.109 1.0742c0.53906-1.6172 1.0781-4.8516 1.0781-4.8516-2.1562 4.8516-4.8516 8.625-10.238 10.777 3.2344-4.3125 6.4688-8.0859 9.6992-11.855 5.9297 1.0781 7.0078 4.3125 4.3125 9.1602-2.6953 4.8516-5.9297 9.1602-11.316 10.777-0.53906 0-1.0781 0.53906-1.6172 0.53906 4.8516-5.3906 9.6992-10.238 11.316-17.785-1.0781 0.54688-2.1562 1.625-3.2344 3.2383zm-4.3125 5.3906c-0.53906 2.1562-3.2344 5.3906-6.4688 7.0078-2.6953 1.6172-5.9297 2.6953-9.1602 3.7734-5.3906 1.6172-9.6992 0-13.473-4.3125 11.316 4.8516 20.48-0.53906 29.102-6.4688zm-23.711 23.176c1.0781-5.3906 3.2344-8.0859 8.625-8.625 4.8516-0.53906 9.1602-2.6953 14.012-3.7734h3.2344c7.5469 4.3125 14.551 8.0859 22.098 12.395 0.53906 0.53906 1.0781 1.6172 1.0781 2.1562 0 1.6172 0.53906 11.316 0.53906 14.551 0 1.6172 0.53906 3.7734-1.6172 4.8516-2.1562 1.6172-4.8516 3.7734-8.0859 2.1562-2.6953-1.6172-5.3906-2.6953-8.0859-4.3125-5.3906-3.7734-10.777-7.5469-16.168-10.777-4.8516-2.6953-10.238-4.3125-15.09-6.4688-0.53906-0.53516-1.0781-1.0742-0.53906-2.1523zm21.555-31.258c0.53906-2.1562 1.6172-3.7734 2.1562-5.9297 0 2.1562 0.53906 4.3125-2.1562 5.9297zm-19.402-19.402c6.4688-0.53906 12.395 0.53906 17.785 3.2344 1.0781 0.53906 2.1562 2.1562 1.6172 2.6953-1.0781 0-2.1562-0.53906-3.2344-0.53906-2.6953-0.53906-4.8516-1.0781-7.0078-1.6172-7.0078-1.6172-12.934 1.0781-17.785 5.9297-1.6172 1.6172-3.2344 4.3125-5.3906 6.4688-1.0781-3.2344 0-5.9297 1.6172-8.625 2.6992-4.8516 7.0117-7.0078 12.398-7.5469zm-18.324 8.082c1.0781-3.2344 2.1562-5.9258 6.4688-7.0039-4.8516 5.3906-6.4688 11.855-5.9297 18.863-2.6914-3.7734-2.1523-8.0859-0.53906-11.859zm-24.789 38.266c-1.0781 0-2.6953 0.53906-4.3125 0.53906 0-2.1562 0.53906-4.3125 0.53906-6.4688 0.53906-5.9297 1.6172-11.855 2.6953-17.785 0.53906-3.7734 2.6953-7.0078 5.9297-8.625 4.8516-2.6953 9.6992-4.8516 14.551-7.5469 0.53906-0.53906 1.6172-0.53906 2.6953-0.53906-0.53906 2.6992-1.0781 4.3164-1.6172 6.4727-1.6172 8.0859 0.53906 15.09 7.0078 19.941 3.7734 3.2344 7.5469 5.9297 11.316 9.1602 1.0781 1.0781 1.6172 1.6172 1.0781 2.6953-0.53906 1.6172-1.0781 3.2344-1.0781 5.3906 0 1.6172-1.0781 2.6953-2.6953 2.1562-5.9297-1.0781-12.395-2.6953-18.324-3.7734s-11.32-2.6953-17.785-1.6172zm9.6992 16.168c-2.1562 0.53906-3.2344 0-3.7734-2.1562-0.53516-1.6172-0.53516-2.6914 1.0781-4.3086 4.3125-3.7734 9.1641-4.8516 14.555-3.2344 9.6992 2.6953 19.941 4.8516 29.641 8.0859 4.8516 1.6172 9.1602 4.3125 13.473 7.0078 4.8516 2.6953 9.6992 5.3906 14.551 8.625-7.5469 2.1562-15.629 2.1562-23.176-0.53906-9.1602-3.2344-18.324-7.0078-28.023-10.777-2.1562-1.0781-4.8516-2.1562-7.0078-2.6953-3.2305-1.625-7.0039-1.625-11.316-0.007813zm28.566 17.246c-3.2344-1.6172-6.4688-2.1562-9.6992-3.2344 1.0781 1.6172 2.1562 2.6953 2.6953 3.2344 0.53906 0.53906 1.6172 1.0781 2.1562 1.0781-2.6953 0-10.777-3.7734-15.09-8.0859 1.0781 0.53906 2.6953 1.0781 3.7734 1.6172 0 0-2.1562-2.1562-3.7734-2.6953 0 0 18.324 5.9297 18.863 5.9297-6.4688-3.2344-13.473-6.4688-18.863-11.855 8.625 3.2344 17.246 6.4688 25.871 9.6992l-19.402-9.1602c2.6953 1.0781 5.9297 1.6172 8.625 2.6953 8.0859 2.6953 16.168 6.4688 24.793 9.1602 8.0859 2.6953 16.168 2.1562 24.254 0 3.2344-1.0781 6.4688-2.6953 8.625-4.3125 2.1562 0 3.2344 0.53906 4.8516 0 10.777-1.6172 14.012-9.6992 16.168-18.863 0.53906-2.6953 2.6953-4.3125 4.3125-5.3906s2.6953 1.0781 2.6953 2.1562c0 1.6172 0 3.2344-0.53906 4.8516-1.6172 4.3125-3.7734 9.1602-5.9297 13.473-3.7734 7.0078-9.6992 11.316-17.246 13.473-10.777 3.2344-22.098 4.8516-33.953 2.6953-8.0977-1.0742-15.645-3.7695-23.188-6.4648zm10.238 10.781c4.3125 1.0781 8.0859 2.1562 12.395 2.6953 10.777 1.0781 21.559 2.1562 32.336 0 7.5469-1.0781 14.012-4.3125 19.941-9.6992-2.6953 5.9297-7.0078 9.6992-12.395 12.395-12.934 5.9297-26.41 6.4688-39.883 2.6953-5.3906-1.6172-10.777-3.7734-16.168-5.9297v-0.53906c8.625 1.6172 17.246 3.2344 25.871 4.8516v-0.54297c-7.0078-1.0781-15.09-2.1523-22.098-5.9258zm52.816-1.6172c-8.0859 3.2344-16.707 3.7734-25.332 2.6953-0.53516 0-0.53516-0.53906-1.0742-0.53906 2.6953-0.53906 4.8516-1.0781 7.5469-1.6172 2.6953-0.53906 5.3906-1.0781 8.0859-1.6172 2.1562-0.53906 4.3125-1.0781 6.4688-1.6172 8.625-2.1562 15.09-7.0078 18.863-15.09 0.53906-1.0781 1.0781-2.1562 1.6172-2.6953-1.0859 9.6992-6.4727 16.707-16.176 20.48zm-20.48 20.48c2.6953-0.53906 4.8516-1.0781 7.0078-1.6172-15.09 1.6172-30.18 1.0781-43.656-8.0859 10.777 4.8516 22.098 7.0078 33.953 6.4688-14.012-1.0781-26.949-4.3125-38.266-12.934 4.8516 1.6172 9.1602 3.7734 14.012 5.3906 6.4688 1.6172 12.934 3.7734 19.402 4.8516 9.1602 1.6172 17.785 0 26.41-3.2344 9.1602-3.2344 14.551-9.6992 17.785-18.324 4.8516-14.012 7.0078-28.562 3.7734-43.656v-1.0781-0.53906c2.1562 2.6953 3.2344 5.3906 3.7734 8.625 1.0781 7.5469 2.1562 15.09 0.53906 22.637-2.6953 14.551-9.6992 25.871-21.559 35.031-6.4688 3.7695-17.785 7.0039-23.176 6.4648zm43.117-33.414c-0.53906 11.316-7.0078 24.254-12.934 26.949 5.9258-8.0898 8.6211-17.789 12.934-26.949zm-22.637 30.18c2.6953-2.1562 4.8516-3.7734 7.0078-5.9297s3.7734-4.8516 5.9297-7.0078c-2.1562 5.9297-5.9297 11.32-12.938 12.938zm-3.2344 10.238v-0.53906c1.0781-0.53906 2.1562-1.0781 3.2344-1.0781 10.238-3.7734 16.168-10.777 20.48-20.48 3.2344-8.0859 5.3906-16.707 5.9297-25.871 0.53906-7.0078 0-14.551 0-21.559 0-0.53906 0-1.6172 0.53906-2.1562 0.53906 1.0781 1.0781 2.6953 1.6172 3.7734 4.8516 19.402 1.6172 37.727-8.0859 54.434-4.3125 8.0859-11.316 12.934-21.02 13.473-1.0781 0.003907-2.1562 0.003907-2.6953 0.003907zm14.555 16.168c4.3125-1.0781 8.0859-2.1562 12.395-3.2344-3.7734 2.6953-7.5469 5.9297-12.395 3.2344zm4.8477 2.1562c11.316-4.8516 17.785-12.934 21.02-23.715-5.9297 11.316-12.934 20.48-27.484 17.785 5.9297-1.6172 11.855-3.7734 16.707-8.0859 4.8516-4.3125 8.625-9.1602 10.238-15.09-5.9297 8.0859-13.473 13.473-22.637 17.246 3.7734-2.6953 7.5469-5.9297 11.316-8.625 6.4688-4.8516 9.1602-11.855 8.625-20.48-0.53906 1.082-0.53906 1.6211-1.0781 2.6992 0 0.53906 0.53906 1.0781 0.53906 1.6172-1.0781 9.6992-12.395 20.48-23.176 21.559 1.0781-1.0781 2.1562-1.6172 2.6953-2.1562 3.7734-3.2344 8.0859-5.3906 11.855-8.625 3.7734-3.2344 6.4688-7.5469 8.0859-12.395-1.0781 1.6172-2.1562 2.6953-2.6953 4.3125-3.2344 4.3125-7.5469 7.5469-12.395 10.777 11.855-17.246 16.707-36.109 15.629-56.59 0.53906 0 3.2344 4.8516 3.7734 7.5469 1.0781 7.0078 0 13.473-2.6953 20.48-0.53906 0-1.0781 2.6953-1.0781 2.6953 4.8516-7.0078 5.9297-15.09 7.5469-23.176 0.53906 7.5469-1.0781 15.09-3.2344 22.637 0.53906 0 3.7734-8.625 5.3906-13.473 0 0 0 8.625-0.53906 13.473 2.6953-4.3125 3.2344-9.1602 3.7734-14.012 2.1562 7.0078-1.0781 12.934-2.1562 19.941 0 0 3.2344-7.0078 4.8516-10.777 0.53906 9.1602-1.6172 17.246-3.2344 25.871 0 0 5.3906-14.551 7.5469-21.559 1.6172 11.316-1.6172 22.637-4.3125 33.953 4.3125-8.0859 8.0859-25.332 8.625-25.332-0.53906 4.8516-1.0781 9.6992-2.1562 14.012-1.6172 6.4688-3.7734 12.934-6.4688 18.863-2.6953 5.9297-7.0078 10.238-13.473 12.934 3.7734-3.7734 6.4688-7.5469 7.0078-12.934-4.3125 7.5469-8.625 15.09-19.941 13.473 1.0781-0.53906 2.1562-1.0781 3.2344-1.0781 7.0078-2.1562 11.855-7.0078 13.473-14.551 1.0781-4.8516 2.1562-9.1602 2.6953-14.012h-0.53906c-1.0781 3.2344-1.6172 7.0078-2.6953 10.238-0.53906 2.1562-1.6172 4.8516-2.6953 7.0078-4.3125 7.5469-9.1602 9.1602-17.785 9.6992-0.003906-1.0781-1.082-1.6172-2.1602-2.1562zm11.32 38.805v-18.863c2.1562 5.9297 2.1562 15.09 0 18.863zm-9.7031-21.559c3.7734 3.2344 4.8516 17.785 1.6172 24.254 1.0781-8.0859 0-16.168-1.6172-24.254zm5.3906 41.5c-7.5469 6.4688-15.09 13.473-25.332 15.629 9.1641-4.3125 17.246-9.1602 25.332-15.629zm-22.637 21.02s3.7734-1.0781 5.3906-2.1562c-4.8516 4.3125-7.0078 7.0078-10.777 4.3125 0.53906-1.0781 1.0781-2.6953 2.1562-4.8516 0-0.53906 0.53906-0.53906 1.0781-1.0781 5.3906-0.53906 9.6992-2.6953 14.551-5.3906h1.0781c-4.3125 3.2344-9.1641 6.4688-13.477 9.1641zm11.859-1.6172c-4.3125 3.2344-8.0859 5.9297-12.395 9.1602l-0.53906-0.53906c3.7695-3.2305 8.082-6.4648 12.934-8.6211zm-14.016-5.3906c1.0781-4.3125 1.0781-9.1602 3.7734-12.934 0.53906-1.0781 1.6172-1.6172 2.6953-2.1562 2.1562-1.0781 4.3125-1.0781 7.0078-2.1562-3.2344 2.6953-7.0078 5.9297-10.238 8.625 5.9297-1.0781 10.238-4.8516 15.09-8.0859-0.003906 0-12.398 11.32-18.328 16.707zm7.5469-22.633c-0.53906 0-3.2344-7.0078-3.2344-7.5469 1.6172 0.53906 4.3125 1.0781 4.8516 2.1562 0.53906 1.6172-1.0781 3.7734-1.6172 5.3906zm8.0859-4.8516c-2.1562 1.6172-4.3125 2.6953-6.4688 3.7734 1.0781-3.2344 2.1562-3.7734 6.4688-3.7734zm-8.0859 8.6211v1.0781c-1.0781 0.53906-3.2344 0.53906-3.7734 0.53906 0.53906-0.53906 0.53906-1.6172 1.0781-1.6172 1.0781-0.53906 2.1562 0 2.6953 0zm8.6211-19.941c-1.0781-1.0781-3.7734-0.53906-3.7734-3.7734 0-2.1562 1.6172-2.1562 3.7734-2.1562 0 1.6172 0.53906 3.7734 0.53906 5.3906 0 0-0.53906 0-0.53906 0.53906zm0 3.2344c0 2.1562 0.53906 4.3125-2.1562 5.9297-1.0781-3.2344-2.1562-6.4688-3.2344-10.238 2.6992 1.6133 5.3906 1.6133 5.3906 4.3086zm-7.0039-5.9258c-4.3125 0-5.9297-1.6172-5.3906-4.3125 0.53906-2.1562 2.6953-1.6172 4.3125-1.6172 1.6172 0 3.2344 2.1562 3.2344 3.7734 0.53906 1.6172-0.53906 2.6953-2.1562 2.1562zm-0.53906 1.6133c0.53906 0.53906 1.6172 1.0781 2.1562 2.1562 1.0781 2.6953 2.1562 5.3906 1.0781 8.625-3.2344-1.6172-7.0078-2.6953-9.6992-4.8516-2.6953-1.6172-2.6953-3.2344 0-5.3906 2.1523-1.0742 3.7695-2.1523 6.4648-0.53906zm-5.3906 9.7031c0.53906 2.6953 1.0781 4.8516 1.6172 7.5469 0.53906 1.6172-0.53906 2.1562-1.6172 2.1562-2.6953 0-7.0078-4.3125-7.0078-8.0859 0.53906-1.0781 1.6172-2.6953 3.2344-4.3125 0.53906-0.53906 3.2344 1.0781 3.7734 2.6953zm-1.6172 11.316c0.53906 0.53906 0.53906 2.6953 0 3.7734-0.53906 1.6172-1.6172 2.6953-2.1562 4.3125-4.8516-1.6172-5.3906-1.6172-5.3906-6.4688s0-4.8516 1.0781-7.0078c2.6953 2.1602 4.8516 3.7734 6.4688 5.3906zm-5.9258 8.625c3.7734 1.6172 4.8516 6.4688 2.1562 9.1602-0.53906 0.53906-1.0781 0.53906-1.6172 0.53906-1.6172-0.53906-2.6953-1.0781-3.7734-2.1562-0.53906-1.0742-0.53906-2.1523-0.53906-3.2305v-2.6953c0.53906-1.6172 1.6172-2.6953 3.7734-1.6172zm-4.8516 0c-1.0781-1.0781-2.6953-2.1562-3.2344-3.2344-0.53906-2.1562 0.53906-4.3125 0.53906-6.4688 1.6172 0 2.6953 0.53906 4.3125 0.53906 0.53906 1.6172 0.53906 3.7734 0.53906 5.9297 0 1.0781-1.6172 2.1562-2.1562 3.2344zm1.6172 11.316c0.53906-0.53906 2.6953 0 3.7734 0.53906 0.53906 0 1.0781 1.6172 0.53906 2.1562-0.53906 2.1562-1.6172 3.7734-2.6953 6.4688-1.0781-0.53906-1.6172-1.0781-2.1562-1.6172-1.0781-1.0781-3.2344-2.1562-3.2344-2.6953 1.0781-1.0781 2.6953-3.2344 3.7734-4.8516zm3.7734 11.32h4.3125c-1.0781 3.2344-2.6953 3.7734-4.8516 2.1562l-0.53906-1.0781c0-0.53906 0.53906-1.0781 1.0781-1.0781zm2.1523 10.238h4.8516c-1.6172 3.2344-3.2344-0.53906-4.8516 1.0781v-1.0781zm0.53906-1.6172c0-0.53906 0-0.53906-0.53906-1.0781 1.0781-1.6172 2.6953-1.6172 4.8516-1.6172v0.53906c-1.6172 0.53906-3.2344 1.0781-4.3125 2.1562zm3.7734-4.3125c7.0078-5.9297 14.012-12.395 20.48-17.785-2.1562 4.8516-17.785 18.324-20.48 17.785zm3.2344 6.4688c1.0781-0.53906 2.6953-1.0781 4.3125-1.6172 3.2344-2.6953 5.9297-5.3906 9.1602-8.0859 0.53906-0.53906 0.53906-0.53906 1.6172-1.0781-3.2344 3.2344-5.9297 7.5469-10.777 9.1602-1.0781 1.6172-2.1562 3.2344-3.7734 4.3125 0 0-1.6172-0.53906-2.6953-1.0781 0.53906-0.53516 1.0781-1.6133 2.1562-1.6133zm10.777-11.316c-2.6953 2.6953-5.3906 5.3906-8.0859 8.0859-1.0781 1.0781-2.6953 1.6172-3.7734 0 7.0078-5.9297 14.012-11.855 20.48-17.246-2.1523 2.6914-5.3867 5.9258-8.6211 9.1602zm8.0859-45.273c0.53906-7.5469 1.0781-15.09-1.0781-22.637 2.6953 7.5469 3.2344 15.094 1.0781 22.637zm-9.1602-21.02c1.0781 1.6172 2.1562 3.7734 2.6953 5.3906 0.53906 4.8516 1.0781 9.1602 1.0781 14.012 0 1.0781-0.53906 2.1562-1.0781 3.2344 0-3.7734 0-8.0859-0.53906-11.855-0.53906-3.7734-2.6953-7.5469-3.7734-11.316 0-0.003907 1.0781-0.003907 1.6172 0.53516zm-2.6953 2.1562c1.0781 2.1562 2.1562 3.7734 2.6953 5.9297-3.7734 1.0781-3.7734 0.53906-7.0078-6.4688 2.1562-1.6172 3.2344-1.6172 4.3125 0.53906zm-10.781 3.2344c1.6172-1.0781 3.2344-2.6953 5.3906-3.7734 0.53906 1.6172 1.0781 2.6953 1.6172 3.7734-2.6953 0.53906-4.8516 0.53906-7.0078 1.0781v-1.0781zm-3.2344 1.6172c0.53906-0.53906 2.6953 0 2.6953 0 0.53906 1.6172 1.6172 3.7734 1.0781 5.3906 0 1.0781-2.1562 2.1562-3.2344 2.6953 0 0-1.0781 0-1.6172-0.53906-1.0781-1.0781-2.6953-2.1562-4.3125-3.7734 2.1602-1.0781 3.7773-2.6953 5.3906-3.7734zm-5.9258 6.4688c6.4688 2.6953 7.0078 5.3906 1.6172 10.777-7.0078-3.2344-6.4688-4.8516-1.6172-10.777zm-5.9297 11.855c0-1.0781 0.53906-2.1562 0.53906-2.6953 1.6172 0.53906 2.6953 1.6172 3.7734 2.1562 3.2344 1.6172 4.3125 4.8516 1.6172 7.0078-0.53906 0.53906-2.1562 1.6172-3.2344 1.0781-1.6172-1.0781-3.7734-1.6172-3.7734-4.3125 0-1.0781 1.0781-2.1562 1.0781-3.2344zm-2.1562 5.3906c2.6953 2.6953 2.1562 10.777 0 13.473v-13.473zm2.6953 28.023c-1.0781-3.7734-2.1562-7.5469-2.6953-10.777 0-1.0781 1.6172-2.6953 2.1562-4.3125 4.8516 2.6953 4.8516 10.777 0.53906 15.09zm3.7734 9.7031c-0.53906-1.0781-1.6172-2.6953-2.6953-4.3125 4.3125 1.0781 4.8516 1.6172 2.6953 4.3125zm5.9297 3.2305c-1.0781 1.0781-1.6172 2.1562-2.1562 1.6172-1.0781-0.53906-2.6953-1.6172-1.6172-3.7734 1.6172 0.53906 2.6953 1.0781 3.7734 2.1562zm0.53516 8.0859c1.0781 0 2.1562 0 3.2344-0.53906v1.6172c-1.0781 0-2.1562 0.53906-2.6953 0.53906 0 0 0-1.0781-0.53906-1.6172zm3.2344 3.2344c1.6172-0.53906 3.2344-0.53906 4.8516-1.0781v1.0781c-1.0781 2.1562-3.2344 1.0781-4.8516 1.0781v-1.0781zm1.0781 3.7734c1.0781-0.53906 2.1562 0 3.2344 0 0 0.53906-0.53906 1.6172-1.0781 2.6953-1.0781-1.082-1.6172-2.1562-2.1562-2.6953zm7.0078 8.6211c-1.6172-1.0781-2.6953-2.6953-4.3125-4.3125v-1.0781c1.0781 0 3.2344-0.53906 3.7734 0 1.0781 1.0781 1.0781 3.2344 1.6172 4.8516 0.53906 0-0.53906 0.53906-1.0781 0.53906zm4.3125-8.082c1.0781 0 1.6172-1.0781 2.1562-1.6172 0 0.53906 1.0781 1.0781 1.0781 1.0781-0.53906 1.0781-1.0781 1.6172-2.1562 2.1562-0.53906-0.54297-0.53906-1.082-1.0781-1.6172zm0.53906 10.238c-0.53906-1.0781 2.1562-2.1562 2.6953-1.0781 1.0781 1.6172 2.1562 3.2344 3.7734 5.3906-1.6172 0-3.2344 0-3.7734-0.53906-1.6172-0.53906-2.1562-2.1562-2.6953-3.7734zm3.7695 8.0859c0.53906-0.53906 1.6172-1.0781 2.6953-1.6172l0.53906 0.53906c-0.53906 1.0781-1.0781 1.6172-2.1562 3.2344-1.0781-1.082-1.6172-2.1562-1.0781-2.1562zm2.1562 18.859v-8.0859c2.1562 0 3.7734 1.0781 4.3125 3.7734 0 2.6992-0.53906 3.2383-4.3125 4.3125zm0.53906-10.238c-0.53906 0-1.0781-1.0781-0.53906-1.6172 0.53906-1.6172 1.0781-3.2344 1.6172-4.8516h1.0781c0.53906 2.6953 1.0781 5.3906 2.1562 8.0859-1.6172-0.53906-3.2344-1.0781-4.3125-1.6172zm3.7734-42.039c2.1562-2.6953 4.8516-4.8516 7.0078-7.5469 0 0 0.53906 0 0.53906 0.53906-2.1562 2.6992-4.8516 5.3906-7.5469 7.0078v0zm2.6953 39.344c2.6953 3.2344 2.6953 3.2344-0.53906 5.9297 0.53906-2.1562 0.53906-3.7734 0.53906-5.9297zm2.6953 22.098c-2.6953-2.6953-3.2344-13.473 0-16.168v16.168zm3.7734-37.188s1.0781 0.53906 1.6172 1.6172l-2.1562 2.1562c-0.53906-0.53906-1.6172-1.6172-1.6172-1.6172 0.53906-1.0781 1.0781-1.6172 2.1562-2.1562zm-1.0781 6.4688s0.53906-1.0781 1.0781-1.0781c0.53906 0 1.0781 0.53906 2.1562 1.6172-1.0781 0.53906-1.6172 1.0781-1.6172 1.0781-1.0781-0.53906-1.6172-1.0781-1.6172-1.6172zm3.2305 4.8477v3.7734h-0.53906c-0.53906-1.0781-1.0781-2.6953-1.6172-3.7734 0-0.53906 0.53906-1.0781 1.0781-1.0781 0.53906 0.53906 1.0781 0.53906 1.0781 1.0781zm3.7734 12.938c-0.53906-2.6953-1.0781-4.8516-1.6172-7.5469-0.53906-3.2344 0.53906-5.3906 2.6953-7.5469 1.6172-1.6172 2.1562 0 2.6953 1.0781 1.0781 2.1562 1.6172 3.7734 2.6953 5.9297-1.6172-1.6172-2.6953-2.6953-4.8516-4.3125-3.2344 4.8516-0.53906 9.6992-0.53906 14.551-2.6953-0.53906-4.8516 0.53906-6.4688 2.6953 0 0-0.53906 0-0.53906-0.53906 0.53906-2.6953 1.0781-4.8516 1.6172-7.5469 2.1562 1.6211 3.2344 2.1602 4.3125 3.2383zm3.2344-127.19-0.53906-0.53906c1.0781-1.6172 2.1562-3.2344 3.2344-5.3906-3.7734 2.6953-7.0078 4.8516-12.395 3.2344 1.0781-0.53906 1.6172-1.0781 1.6172-1.0781 9.6992-4.3125 16.168-11.855 19.402-21.559 2.6953-7.5469 4.8516-15.629 7.0078-23.715 0-0.53906 0-1.0781 0.53906-1.6172 0 10.238-2.6953 19.402-5.3906 29.102-1.6172 5.9297-4.3125 11.855-9.1602 16.707-0.54297 2.1602-2.1602 3.2383-4.3164 4.8555zm100.25 67.906c-4.8516-1.6172-9.6992-2.6953-14.551-4.8516-8.0859-2.6953-16.168-3.7734-24.793-4.3125-10.238 0-20.48-0.53906-29.641-4.3125-9.1602-3.2344-17.785-7.5469-26.949-10.777-1.6172-1.0781-1.6172-2.1562-0.53906-3.2344 1.6172-2.1562 4.3125-3.2344 7.0078-3.2344 4.8516 0.53906 9.6992 0 14.012 1.6172 19.941 6.4688 40.961 9.1602 60.902 14.012 4.8516 1.0781 9.6992 2.1562 14.551 3.2344 0.53906 0 1.0781 0.53906 1.0781 1.0781 1.0781 3.7734 1.6172 7.0078 2.6953 10.777-1.6211 0.54297-2.6992 0.003906-3.7734 0.003906zm8.082-31.797c-0.53906 2.6953-1.6172 5.9297-2.1562 8.625-2.6953-3.7773-1.6172-6.4688 2.1562-8.625zm2.1562 7.0039c1.6172 4.8516 0.53906 8.625-3.7734 10.238-1.6172-5.3867 0-8.6211 3.7734-10.238zm-0.53906 25.332c-1.0781-3.7734-1.6172-8.0859-2.6953-11.855-0.53906-1.6172 2.1562-3.7734 4.3125-4.3125 1.6172 0 2.6953 1.0781 3.2344 3.2344 0.53906 5.3867-2.1562 9.1602-4.8516 12.934zm5.9297-5.3906c1.6172 0.53906 3.2344 1.6172 4.3125 2.1562 0.53906 0 0.53906 0.53906 0.53906 1.0781 1.0781 4.8516-2.1562 11.855-6.4688 14.012-3.2344-7.0039-3.2344-11.855 1.6172-17.246zm5.3867 30.723c-2.6953-3.2344-4.3125-7.0078-5.3906-10.777 0-0.53906 1.0781-1.6172 1.6172-3.2344 3.7734 4.3086 7.0078 8.082 3.7734 14.012zm2.1562 1.0742c0-1.0781 0.53906-1.6172 0.53906-2.6953 0.53906-2.6953 3.2344-4.3125 5.9297-2.1562 1.6172 1.0781 3.2344 2.6953 4.8516 4.3125 1.6172 1.6172 1.0781 2.6953-1.0781 3.7734-1.6172 0.53906-3.2344 1.0781-4.3125 1.0781-1.6172-0.53906-2.6953-0.53906-3.7734-0.53906-2.1562-0.53906-2.6953-1.6172-2.1562-3.7734zm8.625 10.781c-1.6172-1.0781-3.2344-2.6953-4.8516-4.3125 2.6953-0.53906 5.3906-1.0781 7.5469-1.6172 1.0781 3.2344 1.0781 3.7734-2.6953 5.9297zm2.1562 1.6172c1.6172-2.1562 3.7734-2.6953 5.9297-0.53906 2.1562 1.6172 2.1562 2.1562-0.53906 5.3906-2.1562-1.6172-3.7734-3.2344-5.3906-4.8516zm8.6211 3.2344c2.1562 1.0781 2.1562 1.0781-0.53906 4.8516-2.6953-2.1602 0-3.7734 0.53906-4.8516zm1.0781 6.4648c0.53906-5.3906 4.3125-5.3906 8.0859-6.4688 1.6172-0.53906 2.6953 0.53906 2.6953 2.1562 0.53906 3.7734-0.53906 4.8516-3.7734 5.3906-1.0781 0-2.1562 0.53906-3.2344 0.53906s-2.1562 0.53906-2.6953 1.0781c0-1.0781-0.53906-2.1562-1.0781-2.6953zm2.6953 4.3125c2.6953-1.6172 5.3906-2.1562 8.625-1.6172-1.0781 3.2344-5.3906 5.9297-8.0859 5.3906-0.53906 0-1.0781-1.0781-1.0781-1.6172 0-1.0781 0-1.6172 0.53906-2.1562zm4.8516 22.637c-2.6953-4.3125-4.3125-9.1602-4.8516-14.012-0.53906-2.6953 1.6172-3.2344 3.2344-3.7734 2.1562-0.53906 2.6953 0 3.7734 1.6172 1.6172 3.7734 3.7734 7.5469 5.3906 11.855 0.53906 0.53906 0.53906 1.6172 0 2.1562-1.0781 2.1562-2.6953 4.3125-4.3125 6.4688-1.0781-1.6172-2.1562-2.6953-3.2344-4.3125zm4.8477 7.0039c1.6172-2.6953 3.2344-5.3906 4.3125-7.5469 0.53906-1.6172 1.6172-2.1562 3.2344-0.53906 3.2344 2.6953 7.0078 4.8516 10.777 7.0078 1.0781 0.53906 1.6172 1.6172 0.53906 2.6953-1.6172 2.6953-3.2344 5.3906-4.8516 8.0859-4.3086-3.2344-9.1602-6.4688-14.012-9.7031zm71.145 22.637-3.2344-3.2344c-1.6172-1.6172-3.7734-2.1562-5.9297-1.0781s-3.2344 2.6953-3.2344 4.8516 0.53906 4.3125 1.6172 6.4688c1.0781 2.6953 2.1562 4.8516 3.7734 8.625-5.3906-1.6172-9.6992-2.1562-14.551-3.7734-6.4688-2.1562-12.395-5.3906-17.785-10.238-4.3125-4.3125-9.1602-8.0859-14.012-11.855-1.0781-1.0781-1.6172-1.6172-0.53906-3.2344 1.0781-2.1562 2.1562-4.3125 3.7734-6.4688 1.0781 1.0781 2.1562 2.1562 2.6953 3.2344 4.3125 5.3906 8.0859 10.238 12.395 15.629 1.6172 2.1562 3.7734 3.7734 5.9297 5.3906 1.6172 1.0781 3.2344 2.1562 4.8516 2.1562 5.3906 1.0781 8.625-2.1562 6.4688-7.5469-1.6172-4.8516-3.7734-10.238-6.4688-15.09-1.0781-2.1562 0-2.6953 1.0781-4.3125 1.0781-1.6172 2.1562-0.53906 3.2344 0 3.2344 2.1562 6.4688 4.3125 9.6992 6.4688 4.8516 3.2344 9.1602 6.4688 10.238 12.395v1.6133zm4.3086-14.551c-2.1562 0-3.7734-0.53906-5.3906 0-1.0781 0.53906-1.6172 2.1562-1.6172 3.2344-5.9297-4.3125-12.395-8.625-18.324-13.473-2.1562-1.6172-3.2344-4.3125-5.3906-7.0078h1.6172c2.1562-0.53906 4.3125 0 5.3906 2.6953 0.53906 1.0781 2.1562 2.1562 3.2344 2.6953 4.8516 2.6953 9.6992 4.8516 14.012 7.5469 2.1602 0.53516 4.3125 2.1523 6.4688 4.3086zm-14.551-22.098c2.1562 4.8516 3.7734 9.1602 5.9297 14.551-4.3125-2.6953-8.625-5.3906-12.934-8.625-2.6953-2.1562-2.1562-4.8516-1.6172-8.0859h6.4688c1.0742 0.003906 1.6133 1.082 2.1523 2.1602zm-1.6172-6.4648c1.0781 2.1562 0 2.6953-2.6953 2.6953h-0.53906c-1.6172-0.53906-3.2344-1.0781-4.3125-1.6172 0.53906-1.6172 1.0781-2.6953 2.1562-4.3125 1.0781-1.6172 2.6953-1.6172 3.7734 0 0 1.0781 1.0781 2.1562 1.6172 3.2344zm-1.6172-5.3906v1.6172c-1.6172-1.0781-2.6953-1.6172-4.8516-2.6953 1.6172-1.0781 2.6953-2.6953 3.7734-2.6953 2.1562 0 1.0781 2.1562 1.0781 3.7734zm-2.6953-23.176c2.1562 1.0781 4.3125 2.6953 6.4688 4.8516-8.625 0-9.1602 0.53906-8.0859 7.5469h-0.53906c-1.0781-2.6953-2.1562-5.9297-2.6953-8.625-0.53516-2.1562 2.6992-4.8516 4.8516-3.7734zm-3.2305-1.6172c-2.1562 2.6953-4.3125 4.3125-8.0859 3.7734-1.6172-0.53906-3.7734 0-5.9297-0.53906-2.6953 0-4.3125-2.1562-4.3125-4.8516 0-5.9297 0-5.9297 5.3906-11.316 2.6953 0.53906 5.3906 1.6172 8.0859 2.1562 2.6953 0 5.3906-0.53906 8.625-1.0781-4.3125 3.2344-7.5469 6.4648-3.7734 11.855zm4.3086-12.934c-4.3125 1.6172-8.625 2.1562-13.473 0.53906-2.6953-1.0781-3.2344-2.1562-3.2344-5.3906 0-1.6172 0.53906-2.6953 0.53906-4.3125 0 0 0-0.53906 0.53906-0.53906 5.3906 3.2344 10.242 6.4688 15.629 9.7031zm17.246-39.344c-9.1602 8.0859-19.941 14.012-31.258 18.324-1.0781 0.53906-2.1562 0-3.7734-0.53906 12.934-5.3906 24.254-13.473 36.109-21.02 0 0 0.53906 0 1.6172 0.53906-1.6172 1.0781-2.1562 2.1562-2.6953 2.6953zm23.176-11.316c-16.168 2.1562-31.258 0.53906-46.348-4.3125-4.8516-1.6172-10.238-2.6953-15.629-4.3125-0.53906 0-1.0781-0.53906-1.6172-1.0781-1.0781-9.6992-1.6172-19.941-2.1562-29.641 0 0 0-0.53906 0.53906-1.0781 1.0781 0 2.6953 0 4.3125 0.53906 7.0078 2.1562 14.012 3.7734 21.02 5.3906 1.6172 0.53906 2.1562 1.0781 2.1562 2.6953 2.1562 9.1602 4.3125 17.785 7.0078 26.949 0.53906 1.6172 1.6172 2.6953 2.6953 4.3125-0.53906-10.777-3.7734-21.02-4.8516-32.336 3.7734 0 7.0078 0.53906 10.238 0.53906h25.332c1.6172 0 2.6953 0.53906 3.7734 2.1562 2.6953 5.9297 4.8516 12.395 7.5469 18.324 0.53906 2.1562 1.6172 3.7734 2.1562 5.9297 0.53906 0 0.53906 0 1.0781-0.53906-1.6172-5.9297-3.2344-11.855-4.8516-18.324-0.53906-1.6172-1.0781-3.2344-1.6172-4.8516-0.53906-2.1562 0-3.2344 2.1562-3.7734 3.2344-0.53906 6.4688-1.0781 9.6992-1.6172 1.0781 0 2.1562 0 3.2344-0.53906 1.6172-1.0781 2.6953 0 3.7734 1.0781 3.7734 6.4688 8.0859 12.395 12.395 18.324-3.2344-5.3906-5.9297-10.777-9.1602-16.168-0.53906-1.6172-1.6172-2.6953-2.1562-4.3125 0-0.53906 0-2.1562 0.53906-2.6953 7.0078-4.3125 14.551-8.0859 22.098-12.395 4.8516 4.8516 10.238 9.6992 15.629 15.09 2.1562 2.1562 1.6172 3.2344 0.53906 4.3125-3.2344 5.3906-8.0859 9.6992-12.934 12.934-3.7734 2.6953-8.0859 4.8516-11.855 7.0078-2.7031 1.0703-3.2422 1.0703-4.3203 1.6094-12.934 4.8516-26.41 9.1641-40.422 10.781zm22.098 25.867c1.0781-1.0781 2.1562-2.1562 3.2344-2.6953l0.53906 0.53906c0 1.6172 0 2.6953-0.53906 4.3125-0.53906 0.53906-1.6172 1.0781-2.1562 1.6172-0.53906-0.53906-1.6172-1.6172-1.6172-1.6172 0-0.53906 0-1.6172 0.53906-2.1562zm0.53906 5.3906c2.1562 1.6172 3.7734 3.2344 5.3906 4.8516-2.1562 0-3.7734-1.6172-5.3906-4.8516zm7.5469 8.6211c-0.53906-0.53906-1.0781-1.0781-1.6172-2.1562 0.53906 0 1.0781-1.0781 1.6172-1.0781 0.53906 0.53906 1.0781 1.0781 2.1562 2.1562-1.0781 1.0781-1.6172 1.6172-2.1562 1.0781zm2.6914-2.6914c1.0781-0.53906 2.1562-1.0781 3.2344-1.0781s1.6172 0.53906 2.6953 1.0781c-0.53906 1.0781-1.0781 2.6953-2.1562 2.6953-1.6172-0.003906-2.6953-1.0781-3.7734-2.6953zm3.2344 12.395c2.1562 0.53906 3.7734 0.53906 6.4688 1.0781-1.6172 2.1562-3.7734 2.1562-5.3906 1.0781-0.53906 0-1.0781-1.0781-1.6172-1.6172 0-0.53906 0.53906-0.53906 0.53906-0.53906zm1.6172 8.6211s-1.0781-1.0781-1.6172-1.6172v-1.0781c1.0781 0 2.1562-0.53906 3.2344-0.53906 0 0.53906 0 0.53906 0.53906 1.0781-0.53906 0.54297-1.0781 1.6172-2.1562 2.1562zm1.0781 2.1562c1.6172 0 2.6953 0.53906 4.3125 0.53906-1.0781 1.0781-2.1562 1.6172-3.2344 2.6953-0.53906-0.53906-1.0781-1.6172-1.0781-3.2344zm7.0078 13.477c-0.53906-1.6172-2.1562-2.6953-3.2344-4.3125-2.6953-3.2344-2.6953-3.7734 0.53906-7.0078 1.6172 2.1562 3.2344 4.8516 4.8516 7.0078 1.0781 1.0781 0.53906 2.1562-2.1562 4.3125zm17.785 7.0039c-1.6172 1.0781-2.6953 2.6953-4.3125 4.3125-3.2344-2.1562-5.9297-4.3125-9.1602-7.0078-3.2344-2.6953-3.2344-2.6953 0-6.4688 0.53906 1.0781 1.6172 1.6172 2.1562 2.6953 2.6953 5.3906 5.3906 6.4688 11.316 3.7734 1.6172 1.0781 1.6172 1.6172 0 2.6953zm13.473-11.855c-0.53906-0.53906-1.6172-1.0781-2.6953-1.0781-2.1562 0-3.2344 2.6953-2.6953 5.3906 0.53906 2.6953 1.6172 4.8516 2.6953 7.0078-1.6172-0.53906-3.2344-1.0781-5.3906-1.6172-3.2344-0.53906-3.7734-3.2344-4.3125-5.3906-0.53906-2.1562-0.53906-4.8516 1.6172-5.9297s4.3125-1.6172 6.4688-2.1562c1.6172-0.53906 2.1562-0.53906 2.1562-2.1562 0-1.0781-0.53906-3.2344 1.6172-3.2344 0 0 0.53906 2.1562 0.53906 3.7734v5.3906zm-1.6172-10.781c-1.0781-0.53906-2.1562-1.6172-3.2344-2.1562 1.0781-0.53906 1.6172-1.0781 2.1562-1.6172 1.6172-1.6172 2.1562-1.0781 2.6953 0.53906v2.1562c0.53906 1.6172-0.53906 1.6172-1.6172 1.0781z" fill="#1464c1"/>
 <path d="m342.77 197.79c-8.625-2.6953-17.785-4.8516-26.41-8.0859s-17.246-7.5469-25.871-10.777c-8.0859 8.625-15.09 17.785-17.246 22.637 9.6992 4.8516 19.941 8.625 31.258 10.777-9.6992-3.7734-19.402-6.4688-29.102-11.316 4.8516-7.0078 9.6992-13.473 14.551-19.941 6.4688 2.6953 11.855 5.3906 17.785 7.5469 11.316 4.3125 22.637 7.5469 33.953 11.316 0.53906 0 1.6172 1.0781 1.6172 1.6172 1.0781 7.0078 2.1562 14.012 2.6953 21.02v7.0078c-8.0859-3.2344-16.168-6.4688-23.715-9.6992v0.53906c3.7734 1.6172 8.0859 3.2344 11.855 4.8516-8.0859-2.1562-16.168-4.3125-24.793-7.0078h-2.1562c0.53906 0 0.53906 0.53906 1.0781 0.53906 4.8516 1.6172 10.238 3.2344 15.09 4.8516 8.0859 2.6953 15.09 5.3906 22.098 8.0859 1.6172 0.53906 2.6953 0 2.6953-1.6172 0-2.6953 0.53906-4.8516 0.53906-7.5469-0.53906-7.0078-1.6172-14.012-2.1562-21.02 0.007813-2.6992-1.6094-3.2383-3.7656-3.7773z" fill="#1464c1"/>
 <path d="m282.41 125.57c2.6953 5.9297 5.3906 11.855 7.5469 17.785 2.6953 7.0078 4.3125 14.551 7.0078 22.098 0.53906 1.0781 1.0781 2.6953 2.1562 3.2344 9.6992 3.2344 19.941 6.4688 29.641 9.6992 1.0781 0 1.6172 0.53906 2.6953 0.53906-0.53906-0.53906-1.0781-1.0781-1.6172-1.0781-8.0859-2.6953-16.168-5.3906-24.254-8.0859-4.3125-1.6172-7.0078-3.7734-7.5469-8.625-2.1562-11.316-5.9297-22.098-10.777-31.797-1.0781-1.6172-2.1562-3.7734-2.6953-5.3906l0.53906-0.53906c8.0859-3.7734 15.629-7.5469 23.715-11.316 1.0781-0.53906 3.2344-0.53906 4.3125 0 9.1602 2.1562 18.324 4.8516 27.484 7.0078 1.0781 0.53906 2.6953 1.6172 3.2344 2.1562 8.0859 14.012 15.629 28.562 22.098 43.656 3.2344 7.5469 3.2344 7.5469-3.2344 12.934-2.6953 2.1562-4.8516 3.7734-7.5469 5.9297l0.53906 0.53906c4.3125-3.2344 8.0859-6.4688 12.395-9.6992 1.6172-1.0781 2.1562-2.6953 1.0781-4.8516-3.2344-8.625-5.9297-17.246-9.6992-25.332-5.3906-11.316-12.395-22.098-18.324-33.414 0.53906 2.1562 1.0781 3.7734 1.6172 6.4688-2.1562-0.53906-3.2344-0.53906-4.3125-1.0781-8.0859-2.1562-16.168-3.7734-24.254-5.9297-2.6953-0.53906-4.8516-0.53906-7.5469 0.53906-8.0859 3.7734-16.168 7.5469-24.254 11.855-0.53516 1.0781-0.53516 2.1562 0.003906 2.6953z" fill="#1464c1"/>
 <path d="m340.61 188.09c-13.473-4.8516-26.949-9.1602-40.422-14.012 13.477 5.9258 26.949 10.777 40.422 14.012z" fill="#1464c1"/>
 <path d="m213.96 162.76s-0.53906 0-1.0781-0.53906c2.6953 2.6953 5.3906 4.8516 8.625 6.4688 11.855 7.0078 24.254 13.473 36.109 19.941 1.0781 0.53906 1.6172 0.53906 2.6953 1.0781 0.53906 0 1.6172 0 2.1562-0.53906 1.6172-2.1562 3.2344-4.3125 4.8516-6.4688 0 0-0.53906 0-0.53906-0.53906-1.0781 1.6172-2.6953 3.2344-3.7734 4.8516-1.0781 1.6172-2.1562 2.1562-4.3125 1.0781-4.3125-2.1562-8.625-4.3125-12.934-6.4688-10.781-5.9297-21.559-11.316-31.801-18.863z" fill="#1464c1"/>
 <path d="m253.84 182.16c-15.629-8.0859-30.18-17.246-43.656-28.562 12.938 11.855 27.488 21.555 43.656 28.562z" fill="#1464c1"/>
 <path d="m386.43 170.31c3.7734 2.1562 7.0078 3.7734 10.777 5.9297 2.1562 1.0781 3.7734 2.6953 5.9297 3.7734-0.53906-1.0781-1.6172-2.1562-2.6953-2.6953-4.3125-2.6953-9.1602-5.3906-13.473-8.0859-1.0781-0.53906-2.1562-1.6172-2.6953-2.6953-3.2344-8.0859-6.4688-16.168-9.6992-23.715-2.1562-4.8516-4.3125-9.6992-6.4688-14.012h-0.53906c0 0.53906 0.53906 1.6172 1.0781 2.1562 4.8516 11.855 9.6992 23.715 14.551 35.57 0.53906 1.6172 1.6172 2.6953 3.2344 3.7734z" fill="#1464c1"/>
 <path d="m430.08 176.23c-6.4688 3.2344-12.934 6.4688-19.941 9.6992 8.625-0.53516 18.867-5.9258 19.941-9.6992z" fill="#1464c1"/>
 <path d="m382.65 171.93c-0.53906 0-0.53906 0.53906 0 0 4.8516 4.8516 18.863 12.395 21.02 12.395-7.0078-4.3125-14.551-8.0859-21.02-12.395z" fill="#1464c1"/>
 <path d="m374.57 251.15c1.6172 6.4688 3.7734 12.934 5.3906 19.402h0.53906c-1.6211-6.4648-3.2383-12.934-5.9297-19.402z" fill="#1464c1"/>
 <path d="m430.62 250.61c4.8516 0.53906 9.1602-0.53906 13.473 1.0781-4.3086-1.6172-8.6211-0.53906-13.473-1.0781z" fill="#1464c1"/>
 <path d="m431.7 257.62h0.53906c-0.53906-2.1562-1.0781-4.3125-1.6172-7.0078h-1.6172c1.0781 2.6953 1.6172 4.8516 2.6953 7.0078z" fill="#1464c1"/>
 <path d="m354.09 245.76c0.53906 0 1.0781-0.53906 1.6172-0.53906 0.53906 0 1.6172 0.53906 2.1562 0.53906 4.3125 1.6172 8.625 2.6953 13.473 3.7734v-0.53906c-5.9297-1.6172-11.316-3.2344-17.785-5.3906 0.53906 1.6172 0.53906 2.1562 0.53906 2.1562z" fill="#1464c1"/>
 <path d="m387.5 252.77c0.53906 4.8516 1.0781 9.6992 1.6172 14.551h0.53906c-0.53906-4.8477-1.0781-9.6992-2.1562-14.551z" fill="#1464c1"/>
 <path d="m417.68 254.38h-6.4688c2.6953 1.6172 7.0078-2.1562 9.1602 2.6953-0.53516-1.6172-0.53516-2.6953-2.6914-2.6953z" fill="#1464c1"/>
 <path d="m354.63 203.72c-0.53906 0-1.0781 1.6172-1.0781 2.1562 2.1562 8.0859 4.8516 16.168 7.0078 24.254 0 0.53906 0.53906 1.0781 1.0781 1.6172 0 0 0.53906 0 0.53906-0.53906 0-1.0781-0.53906-2.1562-0.53906-3.2344-1.6172-7.0078-3.7734-14.012-5.3906-21.02-0.53906-2.1562 0-2.6953 1.6172-3.7734 2.1562-0.53906 4.3125-1.6172 5.3906-3.2344 5.3906-5.3906 10.777-11.316 15.629-17.246 1.0781-1.6172 2.1562-1.6172 3.7734-0.53906 5.3906 3.7734 10.238 7.0078 15.629 10.238 2.1562 1.6172 3.7734 3.7734 4.3125 5.9297 2.6953 9.1602 5.3906 18.324 7.5469 27.484 1.0781 2.6953 1.6172 5.9297 2.1562 9.1602-4.3125-0.53906-8.0859-1.0781-12.395-1.0781-3.7734-0.53906-8.0859-0.53906-11.855-1.0781-3.7734-0.53906-8.0859-1.0781-11.855-1.0781-3.7734 0-7.5469-0.53906-11.855-0.53906l-0.011719 0.54297c11.316 1.0781 22.098 2.1562 33.414 3.2344v0.53906c-4.8516-0.53906-9.6992-1.0781-14.012-1.6172v0.53906c9.6992 0.53906 19.402 2.6953 29.641 2.6953-0.53906 0.53906-1.6172 1.0781-2.6953 1.0781-8.0859-0.53906-16.168-1.0781-24.793-1.6172-3.7734 0-8.0859-0.53906-11.855-1.0781 8.625 1.6172 17.785 2.6953 26.41 3.2344 3.7734 0.53906 7.5469 0.53906 11.316 0.53906 2.6953 0 3.2344-0.53906 2.6953-3.2344-0.53906-2.1562-1.0781-4.3125-1.6172-6.4688-3.2344-11.316-5.9297-22.637-9.6992-33.414-0.53906-2.1562-2.1562-4.3125-4.3125-5.9297-6.4688-4.3125-13.473-8.0859-19.941-12.395-1.6172-1.0781-2.6953-0.53906-4.3125 1.0781-4.3125 5.9297-9.1602 11.316-15.09 15.629-2.1562 1.6172-4.3125 3.2344-6.4688 4.8516-0.53906 0.53906-1.0781 1.0781-1.0781 1.6172 1.0781 0 2.1562 0 3.2344-0.53906 0.53906 0 1.0781-0.53906 1.6172-1.0781 7.5469-4.8516 14.012-11.316 18.863-18.863 1.0781-1.6172 2.1562-2.1562 3.7734-0.53906-3.2344 3.7734-6.4688 7.5469-9.6992 11.316-4.3125 5.9297-8.625 10.781-15.09 12.398z" fill="#1464c1"/>
 <path d="m345.46 256h0.53906c-1.0781-3.7734-1.6172-8.0859-3.2344-11.855 0.53906 4.3086 1.6172 8.082 2.6953 11.855z" fill="#1464c1"/>
 <path d="m330.38 239.29v-0.53906c-2.6953-1.0781-5.3906-2.1562-8.625-2.6953 2.6953 1.0781 5.9297 2.1562 8.625 3.2344z" fill="#1464c1"/>
 <path d="m427.93 237.68c10.238-3.7734 19.941-7.5469 30.18-11.316 0.53906-1.0781 0.53906-1.6172-0.53906-1.0781-1.0781 0-2.1562 0.53906-3.2344 1.0781-8.0859 2.6953-16.168 5.9297-24.254 9.1602-1.0781 0.53906-2.1562 0.53906-3.7734 1.0781 0-1.6172-0.53906-2.6953-0.53906-3.7734-2.1562-10.238-4.8516-20.48-7.0078-30.18-0.53906-1.0781-0.53906-2.1562 0.53906-3.2344 4.8516-2.6953 9.6992-5.9297 15.09-9.1602 6.4688 9.6992 12.934 19.941 19.941 29.641-8.0859 3.7734-16.168 7.5469-24.254 11.316 0 0 0 0.53906 0.53906 0.53906 8.625-3.7734 17.246-7.5469 26.41-11.316-7.5469-11.316-15.09-22.098-22.637-33.414-5.9297 3.7734-11.855 7.0078-17.246 10.777-0.53906 0-1.0781 1.0781-0.53906 1.6172 0.53906 4.3125 1.0781 9.1602 2.1562 13.473 1.6172 7.5469 3.7734 14.551 5.3906 22.098 0.54297 3.7734 0.54297 4.3125 3.7773 2.6953z" fill="#1464c1"/>
 <path d="m443.02 233.36c-4.3125 2.1562-9.1602 3.7734-13.473 5.9297 1.6172 0 2.6953 0 3.7734-0.53906 5.3906-2.1562 11.316-4.3125 16.707-6.4688 3.2344-1.6172 5.9297-3.2344 9.1602-4.8516 0.53906 0 0.53906-1.0781 1.0781-1.6172-1.0781 0.54297-1.6172 0.54297-2.1562 0.54297-1.0781 0.53906-2.1562 1.6172-3.2344 2.1562-3.7734 1.6133-7.543 3.2305-11.855 4.8477z" fill="#1464c1"/>
 <path d="m198.33 188.09c5.3906-2.6953 9.6992-5.9297 14.551-9.1602l-0.53906-0.53906c-4.3086 3.2305-9.1602 6.4648-14.012 9.6992z" fill="#1464c1"/>
 <path d="m276.48 230.67c2.1562-3.7734 3.7734-7.5469 5.9297-10.777h-0.53906c-2.1562 3.2344-3.7734 7.0078-5.3906 10.777-0.53906-0.53906 0-0.53906 0 0z" fill="#1464c1"/>
 <path d="m27.484 118.57c-1.6172 0.53906-3.7734 4.3125-3.7734 5.9297 0 1.0781 1.0781 1.6172 2.1562 1.0781 1.0781-1.0781 2.6953-2.1562 3.7734-3.2344 0.53906-0.53906 1.0781-1.0781 1.0781-1.6172 0.53906-1.6211-1.6172-2.6953-3.2344-2.1562z" fill="#1464c1"/>
 <path d="m60.363 176.77c4.3125 1.6172 9.1602 3.7734 14.012 4.8516-4.8516-1.6172-9.7031-3.7734-14.012-4.8516z" fill="#1464c1"/>
 <path d="m478.59 243.07s0-0.53906 0.53906-0.53906c-3.2344-3.2344-6.4688-5.9297-9.6992-8.625-5.9297 3.7734-11.855 7.5469-17.785 11.855 0.53906 1.0781 1.0781 2.1562 1.6172 3.2344h0.53906c-0.54297-1.0781-1.082-2.1523-1.082-2.6914 5.3906-3.7734 11.316-7.5469 16.707-11.316 3.2344 2.6914 5.9297 5.3867 9.1641 8.082z" fill="#1464c1"/>
 <path d="m185.4 157.91c-3.2344 0-6.4688 1.0781-9.6992 1.6172 3.2305 0 6.4648-1.0781 9.6992-1.6172z" fill="#1464c1"/>
 <path d="m446.25 186.48c-4.3125-7.0078-9.1602-13.473-13.473-20.48 2.6914 8.082 8.6211 13.473 13.473 20.48z" fill="#1464c1"/>
</svg>
