<?xml version="1.0" encoding="UTF-8"?>
<svg width="512pt" height="512pt" version="1.1" viewBox="0 0 512 512" xmlns="http://www.w3.org/2000/svg">
 <path d="m388.62 155.92c0 12.059-17.941 12.059-17.941 0 0-12.039 17.941-12.039 17.941 0" fill="#1363c1"/>
 <path d="m316.86 155.92c0 12.059-17.941 12.059-17.941 0 0-12.039 17.941-12.039 17.941 0" fill="#1363c1"/>
 <path d="m344.64 208.84c8.2188 0 14.582-9.418 14.582-17.539 0-10.781-10.98-10.781-14.582-10.781-3.6016 0-14.582 0-14.582 10.781 0 8.1211 6.3789 17.539 14.582 17.539zm0-20.32c6.582 0 6.582 1.2383 6.582 2.7812 0 4.3594-3.5586 9.5391-6.582 9.5391-3.0195 0-6.582-5.1602-6.582-9.5391 0-1.5391 0-2.7812 6.582-2.7812z" fill="#1363c1"/>
 <path d="m344.6 234.68c3.8398 4.2383 9.2812 6.8203 15.121 6.8203 2.1992 0 4-1.8008 4-4s-1.8008-4-4-4c-4.8008 0-9.1992-2.8594-11.32-7.3203-0.019532-0.058594-0.078125-0.078126-0.10156-0.14063-0.23828-0.69922-0.66016-1.3008-1.2188-1.7617-0.12109-0.078125-0.21875-0.14062-0.33984-0.21875-0.64063-0.42188-1.3594-0.71875-2.1797-0.71875-0.78125 0-1.4609 0.28125-2.0781 0.67969-0.14062 0.078125-0.26172 0.16016-0.37891 0.26172-0.55859 0.44141-1 1-1.2617 1.6797 0 0.019531-0.039062 0.039062-0.039062 0.058593-1.9414 4.5586-6.3203 7.5-11.199 7.5-2.1992 0-4 1.8008-4 4s1.8008 4 4 4c5.8398-0.019531 11.238-2.5781 15-6.8398z" fill="#1363c1"/>
 <path d="m463.5 134c-5.2812 0-10.699 1.7383-15.441 4.7383-10.621-40.078-43.578-71.02-84.641-78.363 6.2617-4.6797 14.441-9.418 24.461-11.898 2.1406-0.53906 3.4414-2.6992 2.9219-4.8398-0.53906-2.1406-2.7188-3.4414-4.8398-2.9219-14.961 3.7188-26.301 11.801-33.52 18.301-2.5781-0.19922-5.1602-0.39844-7.8008-0.39844-2.0781 0-4.1016 0.19922-6.1406 0.32031 1.1797-6.6211 4.4414-15.879 13.281-23.961 1.6406-1.4805 1.7617-4.0195 0.26172-5.6602-1.4805-1.6406-4-1.7617-5.6406-0.28125-11.48 10.48-15.078 22.738-16.141 30.66-43.082 5.8594-78.02 37.52-89.043 79.023-4.6992-2.9805-10.141-4.6992-15.441-4.6992-13.5 0-24.5 11.059-24.5 24.641 0 13.578 11 24.641 24.5 24.641 4.2617 0 8.6211-1.1992 12.66-3.2383 0.92188 7.2383 2.5195 14.238 4.8008 20.961-69.098 19.141-136.7 71.879-125.76 116.14 1.8008 7.1211 4.3203 13.48 7.418 19.121 0.019531 0.42188 0 0.85938 0.078124 1.2617 0.10156 0.76172 0.28125 2.4414 0.28125 4.8789 0 12.578-4.0391 34.48-31.121 39.84-2.3594 0.46094-4.8789 0.69922-7.5 0.69922-6.2812 0-27.199-1.6797-32.641-23.34-4.3984-17.539 2.0586-46.379 33.34-74.699 14.02-12.539 21.078-26.961 19.879-40.582-1.1602-13.281-9.2188-24.418-23.961-33.121-6.5195-3.8984-15.738-1.4805-19.559 5.1406-3.9609 6.8203-1.6602 15.602 5.1211 19.602 6.1797 3.6211 9.7383 7.4609 10.02 10.801 0.33984 4.2812-3.7812 11.039-9.9805 16.461-35.301 30.078-51.18 68.742-42.48 103.4 8.3203 33.238 37.719 45.039 60.359 45.039 4.3789 0 8.7617-0.44141 12.961-1.3203 34.82-6.8008 47.16-31.078 51.559-48.078 11.219 6.2812 23.16 9.8008 33.879 12.801 5.4805 1.5195 10.68 2.9805 14.922 4.6211 2.7812 1.0781 4.3789 2.7188 5.0586 5.1016 3.4805 12.141-15.48 37.699-22.621 47.34l-0.89844 1.2188c-15.602 21-10.02 34.359-7.9414 37.941 3.6016 6.2617 11.281 12.762 27.66 12.762 4.6992 0 10.121-0.53906 16.379-1.7617 8.2383-1.6992 13.762-4.3789 16.84-8.0586 4.8789 0.80078 9.4805 1.2812 13.578 1.2812 10.52 0 18.359-2.6016 23.039-7.7188 4.4414-4.7617 6.1797-9.7578 5.1602-14.898-1.5586-7.9609-9.4805-13.762-15.941-17.281 5.1211-8.3594 14.34-23.84 17.461-31.078 20.879-47.879-15.641-75.102-34.461-85.441 13.84-9.2383 28.52-9.8203 37.52-5.7188 26.059 11.941 33.699 83.84 30.48 119.04-0.66016 7.6602-1.3203 26.422 7.0195 35.52 2.6602 2.8984 6.0586 4.5 9.8789 4.8203 0.039063 0 0.078125 0.039063 0.12109 0.039063 0.28125 0.058593 0.53906 0.078125 0.80078 0.078125 0.039062 0 0.10156-0.019532 0.16016-0.019532 0.078125 0 0.16016 0.019532 0.26172 0.019532 19.82 0 21.68-13.602 22.66-20.879l0.16016-1.1406c6.7383-49.199-1.8203-82.918-8.6992-110-2.2383-8.8594-4.3789-17.238-5.7617-25.281-0.67969-4.1406-0.44141-9.4805 4.6016-11.48 4.4609-1.7617 10.02 0 11.801 2.6797 28.68 43.32 28.539 85.801 28.441 113.9-0.058594 14.559 2.8789 24.582 8.7812 29.801 2.7812 2.4609 6.1211 3.6992 9.7578 3.7617 0 0 0.019532 0 0.039063 0.019531 0.23828 0.039062 0.48047 0.058594 0.69922 0.058594s0.42188-0.078125 0.64062-0.12109c0.33984-0.019531 0.64062 0.019531 0.98047-0.019531 18.121-2.2188 19.16-18.422 19.48-23.699 6.4805-88.02-26.801-139.68-45.52-161.38 38.82-12.699 67.902-47.141 73.16-88.961 4.0391 2.0391 8.3984 3.2383 12.66 3.2383 13.52 0 24.5-11.039 24.5-24.641-0.019532-13.621-11-24.719-24.5-24.719zm-237.7 41.281c-9.1016 0-16.5-7.4609-16.5-16.641s7.3984-16.641 16.5-16.641c4.6602 0 9.6406 2.0195 13.52 5.2383-0.44141 2.4414-0.85937 4.8984-1.1211 7.3984h-16.602c-2.1992 0-4 1.8008-4 4s1.8008 4 4 4h16.102c-0.039063 1.2812-0.19922 2.5195-0.19922 3.8203 0 1.6016 0.16016 3.1406 0.23828 4.7188-3.6406 2.5586-7.9609 4.1016-11.941 4.1016zm-127.72 227.16c-3.7188 0.76172-7.5586 1.1602-11.379 1.1602-19.762 0-45.398-10.199-52.598-38.98-7.9414-31.641 7-67.301 39.961-95.402 6.6016-5.7383 13.398-14.84 12.738-23.18-0.53906-6.1992-5.2383-11.941-13.961-17.039-3-1.7617-4-5.6602-2.2617-8.6797 1.1211-1.9414 3.1992-3.1406 5.4414-3.1406 1.0781 0 2.1602 0.30078 3.1211 0.87891 12.422 7.3203 19.16 16.379 20.082 26.941 0.98047 11.059-5.1406 23.121-17.262 33.941-33.922 30.719-40.699 62.801-35.738 82.602 6.5195 25.922 31.922 32.02 49.441 28.539 29.48-5.8398 36.102-28.441 37.32-42.199 0.26172 0.28125 0.53906 0.53906 0.80078 0.82031 0.82031 0.89844 1.6797 1.7383 2.5586 2.6016 0.92188 0.92187 1.8594 1.8203 2.8398 2.6797 0.92188 0.80078 1.8789 1.5391 2.8398 2.3008 0.67969 0.51953 1.3008 1.1211 2 1.6406-3.3203 14.941-13.719 38.242-45.941 44.52zm172.42-1.1797c-3.2188 7.4609-14.32 25.941-19.199 33.738-0.039063 0.078125-0.039063 0.16016-0.078126 0.23828-0.039062 0.078125-0.12109 0.12109-0.16016 0.21875-0.078125 0.16016-0.078125 0.35938-0.12109 0.53906-0.078124 0.26172-0.16016 0.5-0.17969 0.76172-0.019531 0.26172 0 0.5 0.019531 0.76172 0.019532 0.26172 0.039063 0.5 0.12109 0.73828 0.078125 0.23828 0.17969 0.48047 0.32031 0.69922 0.12109 0.21875 0.23828 0.44141 0.39844 0.64062 0.16016 0.19922 0.35938 0.37891 0.57812 0.55859 0.14062 0.12109 0.23828 0.26172 0.37891 0.35938 0.058594 0.039063 0.12109 0.019531 0.19922 0.058594 0.10156 0.058593 0.16016 0.14062 0.26172 0.19922 6.7812 3.1211 14.398 8.3203 15.441 13.602 0.5 2.5-0.53906 5.0781-3.1992 7.9219-4.4414 4.8398-14.32 6.2812-27.98 4.2383 0-7.8008-7.4414-15.238-12.039-19.082 3.8008-4.8984 10.898-14.121 13.719-18 17.102-23.801 22.738-44.699 16.762-62.141-6.0195-17.539-22.078-26.34-30.18-29.781 3.3984-5.2383 7.1211-9.5391 10.98-13.102 18.34 9.1992 53.004 33.199 33.961 76.82zm144.72 28.578c-0.48047 7.4805-2.2383 12.98-8.3984 15.281 0.55859-5.1016 0.96094-11.781 0.60156-20.16-0.10156-2.1992-2-3.9219-4.1602-3.8203-2.1992 0.10156-3.9219 1.9609-3.8203 4.1602 0.37891 8.7383-0.12109 15.559-0.67969 20.141-0.64062-0.28125-1.2812-0.53906-1.8398-1.0391-2.3008-2.0391-6.1602-7.8398-6.0781-23.801 0.10156-27.301 0.23828-73-29.781-118.34-4.0781-6.1797-13.68-8.7383-21.398-5.6992-7.6016 3-11.18 10.559-9.5586 20.238 1.4414 8.3594 3.6016 16.879 5.8984 25.898 7.0586 27.801 15.059 59.301 8.5391 106.92l-0.16016 1.1602c-0.83984 6.2617-1.6797 12.199-10.359 13.641 1-6.6406 1.5195-14 1.4609-21.602-0.019532-2.1992-1.4805-3.9414-4.0391-3.9609-2.1992 0.019531-4 1.8203-3.9609 4.0391 0.058593 7.3789-0.46094 14.461-1.4414 20.801-0.60156-0.35938-1.1992-0.69922-1.7188-1.2812-4.2383-4.6211-6.1211-15.879-4.9609-29.398 2.5-27.281-1.3203-111.54-35.121-127.04-12.262-5.5781-33.039-4.3398-50.898 10.621-0.039062 0.019532-0.058593 0.039063-0.078124 0.078126-6.1992 5.2188-12.059 12.059-17.078 20.898-0.60156 1.0586-0.67969 2.3398-0.23828 3.4805 0.46094 1.1211 1.3984 2 2.5781 2.3398 0.21875 0.078124 22.961 6.9609 29.66 26.48 5.0781 14.84-0.17969 33.301-15.68 54.859-3.8789 5.3398-16 20.941-16.02 20.961-0.67969 0.85938-0.96094 1.9609-0.80078 3.0586 0.16016 1.0781 0.76172 2.0391 1.6602 2.6797 5.5195 3.8789 12.879 11.34 11.961 15.84-0.60156 2.8984-5.4219 5.5-13.199 7.1016-12.859 2.5586-29.48 3.3594-35.539-7.1602-2.8789-4.9609-2.6602-15.559 7.4414-29.16l0.89844-1.2188c14.059-18.98 27.898-40.262 23.879-54.297-1.3594-4.7812-4.7617-8.3594-9.8398-10.359-4.6406-1.8008-10-3.2812-15.68-4.8789-11.738-3.2812-25.039-6.9805-36.539-14.539-7.6406-5.0586-13.84-11.621-18.422-19.52-2.9805-5.1992-5.3594-11.281-7.0586-18.059-8.8984-36 49.48-87.156 120.8-106.6 15.559 36.801 50.941 63.059 92.539 65.418 1.8789 0.19922 3.8008 0.32031 5.7383 0.32031h0.33984c8.418 0 16.582-1.0781 24.441-2.9414 17.18 18.781 52.699 69.004 46.121 158.46zm-117.46-210.5v-19.52c0-1.6797-1.0391-3.1797-2.6211-3.7617-16.078-5.8789-26.898-21.422-26.898-38.66 0-22.66 18.34-41.102 40.898-41.102 12.84 0 24.602 5.8789 32.262 16.16 0.76172 1 1.9414 1.6016 3.1992 1.6016 1.2617 0 2.4414-0.57812 3.1797-1.5781 7.7812-10.281 19.578-16.16 32.379-16.16 22.559 0 40.898 18.441 40.898 41.102 0 17.539-11.039 33.141-27.441 38.84-1.6016 0.55859-2.6797 2.0781-2.6797 3.7812v19.301c0 12.621-4.8594 24.398-13.719 33.219-8.6602 8.8398-20.281 13.719-32.738 13.762-1.7188 0-3.3984-0.16016-5.1016-0.26172-23.359-2.5-41.621-22.5-41.621-46.719zm84.418 39.5c0.23828-0.21875 0.48047-0.42188 0.69922-0.64062 10.34-10.301 16.039-24.078 16.039-38.84v-16.559c18.141-7.5195 30.141-25.398 30.141-45.379 0-27.082-21.941-49.102-48.898-49.102-13.66 0-26.379 5.6016-35.559 15.52-9.0586-9.8008-22-15.52-35.48-15.52-26.961 0-48.898 22.02-48.898 49.102 0 19.641 11.762 37.422 29.52 45.121v16.801c0 15.262 6.1992 29.102 16.199 39.059-35.5-15.199-60.461-50.68-60.461-91.941 0-55.059 44.48-99.859 99.137-99.859 54.66 0 99.137 44.801 99.137 99.859 0.019531 41.699-25.48 77.441-61.578 92.379zm81.32-83.559c-4 0-8.3203-1.5586-11.961-4.1016 0.078125-1.5781 0.23828-3.1211 0.23828-4.7188 0-1.2812-0.16016-2.5391-0.19922-3.8203h16.121c2.1992 0 4-1.8008 4-4s-1.8008-4-4-4h-16.602c-0.28125-2.5-0.67969-4.9414-1.1211-7.3984 3.9219-3.2188 8.8984-5.2383 13.52-5.2383 9.1016 0 16.5 7.4609 16.5 16.641 0 9.1797-7.3984 16.641-16.5 16.641z" fill="#1363c1"/>
 <path d="m225.58 227.9c-1.0586-1.9219-3.5-2.6406-5.4414-1.5586l-10.699 5.918c-1.9414 1.0586-2.6406 3.5-1.5586 5.4414 0.71875 1.3203 2.1016 2.0586 3.5 2.0586 0.66016 0 1.3203-0.16016 1.9219-0.5l10.699-5.918c1.9414-1.0586 2.6406-3.5 1.5781-5.4414z" fill="#1363c1"/>
 <path d="m187.4 272.3c0.66016 0 1.3203-0.16016 1.9219-0.5l10.699-5.918c1.9414-1.0586 2.6406-3.5 1.5586-5.4414-1.0586-1.9219-3.5-2.6406-5.4414-1.5586l-10.66 5.918c-1.9414 1.0586-2.6406 3.5-1.5586 5.4414 0.71875 1.3203 2.0781 2.0586 3.4805 2.0586z" fill="#1363c1"/>
 <path d="m175.42 249.56-10.699 5.918c-1.9414 1.0586-2.6406 3.5-1.5586 5.4414 0.71875 1.3203 2.1016 2.0586 3.5 2.0586 0.66016 0 1.3203-0.16016 1.9219-0.5l10.699-5.918c1.9414-1.0586 2.6406-3.5 1.5586-5.4414-1.0391-1.9414-3.4805-2.6406-5.4219-1.5586z" fill="#1363c1"/>
 <path d="m252.38 242.16c-1.0586-1.9219-3.5-2.6406-5.4414-1.5586l-10.699 5.918c-1.9414 1.0586-2.6406 3.5-1.5586 5.4414 0.71875 1.3203 2.1016 2.0586 3.5 2.0586 0.66016 0 1.3203-0.16016 1.9219-0.5l10.699-5.918c1.9414-1.0781 2.6406-3.5 1.5781-5.4414z" fill="#1363c1"/>
 <path d="m269.38 258.94c-1.9219-1.1211-4.3594-0.5-5.4805 1.3984l-6.2422 10.52c-1.1211 1.8984-0.5 4.3594 1.3984 5.4805 0.64062 0.37891 1.3398 0.55859 2.0391 0.55859 1.3594 0 2.6992-0.69922 3.4414-1.9609l6.2422-10.52c1.1406-1.8984 0.5-4.3398-1.3984-5.4805z" fill="#1363c1"/>
 <path d="m230.34 274.34c-1.9219-1.1211-4.3594-0.5-5.4805 1.3984l-6.2422 10.52c-1.1211 1.8984-0.5 4.3594 1.3984 5.4805 0.64062 0.37891 1.3398 0.55859 2.0391 0.55859 1.3594 0 2.6992-0.69922 3.4414-1.9609l6.2422-10.52c1.1406-1.8984 0.5-4.3398-1.3984-5.4805z" fill="#1363c1"/>
 <path d="m254.04 284.86c-1.9219-1.1406-4.3594-0.5-5.4805 1.3984l-6.2422 10.52c-1.1211 1.8984-0.5 4.3594 1.3984 5.4805 0.64062 0.37891 1.3398 0.55859 2.0391 0.55859 1.3594 0 2.6992-0.69922 3.4414-1.9609l6.2422-10.52c1.1211-1.8984 0.5-4.3398-1.3984-5.4805z" fill="#1363c1"/>
 <path d="m251.54 354.44c0.73828 1.3008 2.0781 2.0195 3.4805 2.0195 0.66016 0 1.3398-0.16016 1.9609-0.51953 1.9219-1.0781 2.6016-3.5195 1.5-5.4609l-6.0391-10.641c-1.0781-1.9219-3.5391-2.6016-5.4609-1.5-1.9219 1.0781-2.6016 3.5195-1.5 5.4609z" fill="#1363c1"/>
 <path d="m321.2 336.76c-1.9219 1.0781-2.6016 3.5195-1.5 5.4609l6.0391 10.641c0.73828 1.3008 2.0781 2.0195 3.4805 2.0195 0.66016 0 1.3398-0.16016 1.9609-0.51953 1.9219-1.0781 2.6016-3.5195 1.5-5.4609l-6.0391-10.641c-1.0586-1.8984-3.5195-2.5781-5.4414-1.5z" fill="#1363c1"/>
 <path d="m328.98 377.54-6.3594 10.441c-1.1602 1.8789-0.55859 4.3398 1.3398 5.5 0.66016 0.39844 1.3594 0.57812 2.0781 0.57812 1.3398 0 2.6602-0.67969 3.4219-1.9219l6.3594-10.441c1.1602-1.8789 0.55859-4.3398-1.3398-5.5-1.8789-1.1211-4.3594-0.53906-5.5 1.3398z" fill="#1363c1"/>
 <path d="m333.84 409.32-6.3594 10.441c-1.1602 1.8789-0.55859 4.3398 1.3398 5.5 0.66016 0.39844 1.3594 0.57812 2.0781 0.57812 1.3398 0 2.6602-0.67969 3.4219-1.9219l6.3594-10.441c1.1602-1.8789 0.55859-4.3398-1.3398-5.5-1.8984-1.1406-4.3594-0.53906-5.5 1.3398z" fill="#1363c1"/>
 <path d="m256.7 413.66c0.71875 0.51953 1.5391 0.76172 2.3594 0.76172 1.2383 0 2.4609-0.55859 3.2383-1.6406l4.1211-5.6406c1.3008-1.7812 0.92188-4.2812-0.87891-5.5781-1.7812-1.3008-4.2812-0.89844-5.5781 0.87891l-4.1211 5.6406c-1.3203 1.7617-0.92188 4.2812 0.85938 5.5781z" fill="#1363c1"/>
 <path d="m265.7 383.62c0.17969 0 0.35938 0 0.55859-0.039063 2.1797-0.30078 3.7188-2.3203 3.3984-4.5195l-0.96094-6.9219c-0.32031-2.1797-2.3594-3.7617-4.5195-3.3984-2.1797 0.30078-3.7188 2.3203-3.3984 4.5195l0.96094 6.9219c0.30078 2 2 3.4414 3.9609 3.4414z" fill="#1363c1"/>
 <path d="m145.02 287.68c-1.9219-1.1406-4.3594-0.5-5.4805 1.3984l-6.2422 10.52c-1.1211 1.8984-0.5 4.3594 1.3984 5.4805 0.64063 0.37891 1.3398 0.55859 2.0391 0.55859 1.3594 0 2.6992-0.69922 3.4414-1.9609l6.2422-10.52c1.1406-1.8984 0.5-4.3594-1.3984-5.4805z" fill="#1363c1"/>
 <path d="m170.1 298.48 6.2422-10.52c1.1211-1.8984 0.5-4.3594-1.3984-5.4805-1.9219-1.1406-4.3594-0.5-5.4805 1.3984l-6.2422 10.52c-1.1211 1.8984-0.5 4.3594 1.3984 5.4805 0.64062 0.37891 1.3398 0.55859 2.0391 0.55859 1.3594 0 2.6797-0.71875 3.4414-1.9609z" fill="#1363c1"/>
 <path d="m197.78 294.92-6.2422 10.52c-1.1211 1.8984-0.5 4.3594 1.3984 5.4805 0.64062 0.37891 1.3398 0.55859 2.0391 0.55859 1.3594 0 2.6992-0.69922 3.4414-1.9609l6.2422-10.52c1.1211-1.8984 0.5-4.3594-1.3984-5.4805-1.8984-1.1406-4.3398-0.5-5.4805 1.3984z" fill="#1363c1"/>
 <path d="m209.5 317.04c-1.9219-1.1406-4.3594-0.5-5.4805 1.3984l-6.2422 10.52c-1.1211 1.8984-0.5 4.3594 1.3984 5.4805 0.64062 0.37891 1.3398 0.55859 2.0391 0.55859 1.3594 0 2.6992-0.69922 3.4414-1.9609l6.2422-10.52c1.1211-1.8984 0.5-4.3594-1.3984-5.4805z" fill="#1363c1"/>
 <path d="m154.72 320.92c-1.2383-1.8203-3.7188-2.2812-5.5586-1.0391-1.8203 1.2383-2.2812 3.7383-1.0391 5.5586l6.9219 10.082c0.78125 1.1211 2.0195 1.7383 3.3008 1.7383 0.78125 0 1.5586-0.21875 2.2617-0.69922 1.8203-1.2383 2.2812-3.7383 1.0391-5.5586z" fill="#1363c1"/>
 <path d="m172.72 313.18c-1.2383-1.8203-3.7188-2.2812-5.5586-1.0391-1.8203 1.2383-2.2812 3.7383-1.0391 5.5586l6.9219 10.082c0.78125 1.1211 2.0195 1.7383 3.3008 1.7383 0.78125 0 1.5586-0.21875 2.2617-0.69922 1.8203-1.2383 2.2812-3.7383 1.0391-5.5586z" fill="#1363c1"/>
 <path d="m192.6 343.3c-1.2383-1.8203-3.7188-2.2812-5.5586-1.0391-1.8203 1.2383-2.2812 3.7383-1.0391 5.5586l6.9219 10.082c0.78125 1.1211 2.0195 1.7383 3.3008 1.7383 0.78125 0 1.5586-0.21875 2.2617-0.69922 1.8203-1.2383 2.2812-3.7383 1.0391-5.5586z" fill="#1363c1"/>
 <path d="m219.38 377.2c0.35938 0.10156 0.71875 0.14062 1.0781 0.14062 1.7617 0 3.3594-1.1602 3.8398-2.9219l3.2812-11.781c0.60156-2.1211-0.66016-4.3398-2.7812-4.9219-2.1406-0.57812-4.3398 0.66016-4.9219 2.7812l-3.2812 11.781c-0.60156 2.1211 0.64062 4.3398 2.7812 4.9219z" fill="#1363c1"/>
 <path d="m229.96 408.2c0.35937 0.10156 0.71875 0.14062 1.0781 0.14062 1.7617 0 3.3594-1.1602 3.8398-2.9219l3.2812-11.781c0.60156-2.1211-0.66016-4.3398-2.7812-4.9219-2.1211-0.57812-4.3398 0.66016-4.9219 2.7812l-3.2812 11.781c-0.60156 2.1211 0.64062 4.3203 2.7812 4.9219z" fill="#1363c1"/>
 <path d="m203.94 424.56c-2.1406-0.55859-4.3398 0.66016-4.9219 2.7812l-3.2812 11.781c-0.60156 2.1211 0.66016 4.3398 2.7812 4.9219 0.35938 0.10156 0.71875 0.14062 1.0781 0.14062 1.7617 0 3.3594-1.1602 3.8398-2.9219l3.2812-11.781c0.60156-2.1406-0.66016-4.3398-2.7812-4.9219z" fill="#1363c1"/>
 <path d="m226.42 412.76c-2.1406-0.57812-4.3398 0.66016-4.9219 2.7812l-3.2812 11.781c-0.60156 2.1211 0.66016 4.3398 2.7812 4.9219 0.35938 0.10156 0.71875 0.14062 1.0781 0.14062 1.7617 0 3.3594-1.1602 3.8398-2.9219l3.2812-11.781c0.60156-2.1211-0.64062-4.3203-2.7812-4.9219z" fill="#1363c1"/>
 <path d="m300.84 279.6c-1.9219-1.1406-4.3594-0.5-5.4805 1.3984l-6.2422 10.52c-1.1211 1.8984-0.5 4.3594 1.3984 5.4805 0.64062 0.37891 1.3398 0.55859 2.0391 0.55859 1.3594 0 2.6992-0.69922 3.4414-1.9609l6.2422-10.52c1.1211-1.8984 0.48047-4.3594-1.3984-5.4805z" fill="#1363c1"/>
 <path d="m318.36 307.94c-0.19922-2.1992-2.1602-3.8984-4.3594-3.6016-2.1992 0.19922-3.8203 2.1602-3.6016 4.3594l1.1602 12.18c0.19922 2.0781 1.9414 3.6211 3.9805 3.6211 0.12109 0 0.26172 0 0.37891-0.019531 2.1992-0.19922 3.8203-2.1602 3.6016-4.3594z" fill="#1363c1"/>
 <path d="m373 309.24c0.51953 1.7188 2.1211 2.8203 3.8203 2.8203 0.37891 0 0.78125-0.058594 1.1797-0.17969 2.1211-0.64062 3.3008-2.8789 2.6406-5l-3.5781-11.68c-0.64062-2.1211-2.8594-3.3008-5-2.6406-2.1211 0.64062-3.3008 2.8789-2.6406 5z" fill="#1363c1"/>
 <path d="m386.5 343.14c0.30078 0.058594 0.60156 0.10156 0.87891 0.10156 1.8398 0 3.4805-1.2617 3.8984-3.1211l2.6797-11.941c0.48047-2.1602-0.87891-4.3008-3.0195-4.7812-2.1602-0.5-4.2812 0.87891-4.7812 3.0195l-2.6797 11.941c-0.5 2.1602 0.85938 4.3008 3.0195 4.7812z" fill="#1363c1"/>
 <path d="m398.54 377.32c0.30078 0.058594 0.60156 0.10156 0.87891 0.10156 1.8398 0 3.4805-1.2617 3.8984-3.1211l2.6797-11.941c0.48047-2.1602-0.87891-4.3008-3.0195-4.7812-2.1406-0.48047-4.3008 0.87891-4.7812 3.0195l-2.6797 11.941c-0.48047 2.1602 0.87891 4.3008 3.0195 4.7812z" fill="#1363c1"/>
 <path d="m270.38 220.12c0.30078 0.058593 0.60156 0.10156 0.87891 0.10156 1.8398 0 3.4805-1.2617 3.8984-3.1211l2.6797-11.941c0.48047-2.1602-0.87891-4.3008-3.0195-4.7812-2.1602-0.46094-4.2812 0.87891-4.7812 3.0195l-2.6797 11.941c-0.5 2.1602 0.85938 4.3008 3.0195 4.7812z" fill="#1363c1"/>
 <path d="m416.42 203.3c-2.1406-0.48047-4.3008 0.87891-4.7812 3.0195l-2.6797 11.941c-0.48047 2.1602 0.87891 4.3008 3.0195 4.7812 0.30078 0.058593 0.60156 0.10156 0.87891 0.10156 1.8398 0 3.4805-1.2617 3.8984-3.1211l2.6797-11.941c0.48047-2.1602-0.87891-4.3008-3.0195-4.7812z" fill="#1363c1"/>
 <path d="m434.24 174.66c-2.1406-0.48047-4.3008 0.87891-4.7812 3.0195l-2.6797 11.941c-0.48047 2.1602 0.87891 4.3008 3.0195 4.7812 0.30078 0.058594 0.60156 0.10156 0.87891 0.10156 1.8398 0 3.4805-1.2617 3.8984-3.1211l2.6797-11.941c0.5-2.1602-0.85938-4.3008-3.0195-4.7812z" fill="#1363c1"/>
 <path d="m254.9 159.88c-2.2383-0.12109-4.1016 1.5781-4.1992 3.7812l-0.64062 12.219c-0.12109 2.1992 1.5781 4.0781 3.7812 4.1992h0.21875c2.1211 0 3.8789-1.6602 4-3.8008l0.64062-12.219c0.10156-2.1797-1.5781-4.0586-3.8008-4.1797z" fill="#1363c1"/>
 <path d="m272.9 109.52c-1.9414-1.0586-4.3594-0.33984-5.4414 1.6016l-5.8594 10.738c-1.0586 1.9414-0.33984 4.3594 1.6016 5.4414 0.60156 0.33984 1.2617 0.48047 1.9219 0.48047 1.4219 0 2.8008-0.76172 3.5195-2.0781l5.8594-10.738c1.0586-1.9414 0.33984-4.3594-1.6016-5.4414z" fill="#1363c1"/>
 <path d="m300.84 81.637c-1.9414-1.0586-4.3594-0.33984-5.4414 1.6016l-5.8594 10.738c-1.0586 1.9414-0.33984 4.3594 1.6016 5.4414 0.60156 0.33984 1.2617 0.48047 1.9219 0.48047 1.4219 0 2.8008-0.76172 3.5195-2.0781l5.8594-10.738c1.0586-1.9609 0.33984-4.3984-1.6016-5.4414z" fill="#1363c1"/>
 <path d="m324.66 89.359c-1.9414-1.0391-4.3789-0.33984-5.4414 1.6016l-5.8594 10.738c-1.0586 1.9414-0.33984 4.3594 1.6016 5.4414 0.60156 0.33984 1.2617 0.48047 1.9219 0.48047 1.4219 0 2.8008-0.76172 3.5195-2.0781l5.8594-10.738c1.0586-1.9609 0.33984-4.3789-1.6016-5.4414z" fill="#1363c1"/>
 <path d="m343.16 85.004-0.44141-12.219c-0.078125-2.1992-1.8398-3.9609-4.1406-3.8398-2.1992 0.078126-3.9414 1.9414-3.8398 4.1406l0.44141 12.219c0.078125 2.1602 1.8398 3.8594 4 3.8594h0.16016c2.1797-0.10156 3.9219-1.9609 3.8203-4.1602z" fill="#1363c1"/>
 <path d="m344.28 94.238c-2.1992 0.078125-3.9414 1.9414-3.8398 4.1406l0.44141 12.219c0.078125 2.1602 1.8398 3.8594 4 3.8594h0.16016c2.1992-0.078125 3.9414-1.9414 3.8398-4.1406l-0.44141-12.219c-0.10156-2.2188-2-4-4.1602-3.8594z" fill="#1363c1"/>
 <path d="m363.8 74.879c-1.6016-1.5391-4.1211-1.5-5.6602 0.10156-1.5391 1.6016-1.4805 4.1211 0.10156 5.6602l8.8008 8.5c0.78125 0.76172 1.7812 1.1211 2.7812 1.1211 1.0391 0 2.1016-0.39844 2.8789-1.2188 1.5391-1.6016 1.4805-4.1211-0.10156-5.6602z" fill="#1363c1"/>
 <path d="m361.98 93c-1.6016-1.5391-4.1211-1.4805-5.6602 0.10156-1.5391 1.6016-1.4805 4.1211 0.10156 5.6602l8.8008 8.5c0.78125 0.76172 1.7812 1.1211 2.7812 1.1211 1.0391 0 2.1016-0.39844 2.8789-1.2188 1.5391-1.6016 1.4805-4.1211-0.10156-5.6602z" fill="#1363c1"/>
 <path d="m389.72 87.641c-1.6016-1.5391-4.1211-1.5-5.6602 0.10156-1.5391 1.6016-1.4805 4.1211 0.10156 5.6602l8.8008 8.5c0.78125 0.76172 1.7812 1.1211 2.7812 1.1211 1.0391 0 2.1016-0.39844 2.8789-1.2188 1.5391-1.6016 1.4805-4.1211-0.10156-5.6602z" fill="#1363c1"/>
 <path d="m416.98 107.58c-1.6016-1.5391-4.1211-1.5-5.6602 0.10156-1.5391 1.6016-1.4805 4.1211 0.10156 5.6602l8.8008 8.5c0.78125 0.76172 1.7812 1.1211 2.7812 1.1211 1.0391 0 2.1016-0.39844 2.8789-1.2188 1.5391-1.6016 1.4805-4.1211-0.10156-5.6602z" fill="#1363c1"/>
 <path d="m439.96 153.02-2.6797-11.941c-0.48047-2.1602-2.6211-3.5195-4.7812-3.0195-2.1602 0.48047-3.5195 2.6211-3.0195 4.7812l2.6797 11.941c0.42188 1.8594 2.0586 3.1211 3.8984 3.1211 0.28125 0 0.57812-0.039063 0.87891-0.10156 2.1406-0.48047 3.5-2.6211 3.0195-4.7812z" fill="#1363c1"/>
 <path d="m401 385.72-2.6797 11.941c-0.48047 2.1602 0.87891 4.3008 3.0195 4.7812 0.30078 0.058594 0.60156 0.10156 0.87891 0.10156 1.8398 0 3.4805-1.2617 3.8984-3.1211l2.6797-11.941c0.48047-2.1602-0.87891-4.3008-3.0195-4.7812-2.1406-0.5-4.3008 0.85938-4.7812 3.0195z" fill="#1363c1"/>
 <path d="m339.34 279-7.3594 9.7812c-1.3203 1.7617-0.98047 4.2812 0.80078 5.6016 0.71875 0.53906 1.5586 0.80078 2.3984 0.80078 1.2188 0 2.4219-0.55859 3.1992-1.6016l7.3594-9.7812c1.3203-1.7617 0.98047-4.2812-0.80078-5.6016-1.7812-1.3203-4.2812-0.98047-5.6016 0.80078z" fill="#1363c1"/>
</svg>
