<?xml version="1.0" encoding="UTF-8"?>
<svg width="512pt" height="512pt" version="1.1" viewBox="0 0 512 512" xmlns="http://www.w3.org/2000/svg">
 <path d="m303.52 184.92c-0.5 0.92188-1.1797 2.0195-1.9609 3.1992-1.5781 2.4219-3.6797 5.2188-6.4805 8.1211-4.0586 4.1992-9.4805 8.4609-16.52 11.578-0.28125 0.14062-0.5 0.33984-0.64062 0.57812-0.33984 0.51953-0.37891 1.1602-0.37891 1.6016v0.33984c0.10156 1.0586 0.64063 2.1406 1.5781 2.6406 0.17969 0.10156 0.33984 0.19922 0.55859 0.23828 2.8594 0.60156 5.8398 1.1016 8.8398 1.5 20.039 2.6797 42.422 0.039062 57.078-18.641 3.8984-4.9609 7.2383-11.02 9.8594-18.422h-0.019531v-0.019532c-16.34 0.48047-33.719 2.8789-51.922 7.2812z" fill="#1363c1"/>
 <path d="m423.72 169.16c-22.059-14.781-28.359-16.281-28.66-16.359-1.5586-0.30078-2.6406-1.8594-2.3398-3.4805 0.30078-1.5586 1.8008-2.6406 3.4219-2.3984 0.66016 0.12109 7.5195 1.5586 30.961 17.238 14.301 9.6797 25.719 13.879 33.059 15.68-1.5586-4.1992-4.9805-10.82-11.84-14.66-1.1406-0.60156-1.7383-1.8594-1.5-3.0586 1.0781-6.4805-7.8789-21.398-30.059-38.699-36.961-28.84-120.32-68.699-198.4-34.801-0.058594 0-0.12109 0-0.12109 0.058594-0.23828 0.058593-0.42188 0.058593-0.66016 0.12109-0.17969 0-0.35938 0.058594-0.48047 0.058594-0.17969 0-0.35938-0.058594-0.60156-0.12109-0.17969-0.058593-0.35938-0.058593-0.53906-0.17969h-0.12109c-36.961-18.398-66.242-13.82-84.262-6.7383-2.2188 0.89844-2.2188 2.9414-2.1016 3.4805 0.12109 1.3789 0.96094 2.8789 3 3.2383 12.379 2.0391 20.441 7.2188 23.859 15.32 6.9219 16.359-7.3984 38.398-10.34 42.68-0.058594 0.058594-0.17969 0.12109-0.23828 0.17969v0.058594c-89.199 105.66-64.723 191.78-55.059 215.72 1.5 3.9609 0.71875 8.3008-1.9805 11.422-3.6602 4.1992-8.0586 8.8398-13.102 13.699-15.621 15.141-21.941 36.48-24.398 48.738 8.8984-12.621 20.199-18.762 32.699-18.039 5.2188 0.35938 9.3789-1.8008 12.5-6.5586 0-0.058594 0.058594-0.058594 0.058594-0.12109 0.17969-0.23828 0.35938-0.42188 0.60156-0.60156 0.12109-0.12109 0.30078-0.17969 0.48047-0.30078 0.12109-0.058593 0.23828-0.12109 0.42188-0.17969 0.23828-0.058594 0.48047-0.12109 0.71875-0.12109 0.12109 0 0.23828-0.058594 0.30078-0.058594 0.12109 0 0.17969 0.058594 0.23828 0.058594 0.17969 0 0.35937 0.058594 0.53906 0.12109 0.17969 0.058594 0.42188 0.12109 0.53906 0.23828 0.058594 0 0.17969 0 0.23828 0.058594 0.058594 0.058593 0.12109 0.17969 0.23828 0.23828 0.12109 0.12109 0.30078 0.23828 0.42188 0.42188 0.12109 0.17969 0.23828 0.30078 0.30078 0.48047 0.12109 0.17969 0.17969 0.30078 0.23828 0.53906 0.058594 0.17969 0.058594 0.35938 0.058594 0.53906 0.058594 0.12109 0.12109 0.23828 0.12109 0.35938s0 1.8008 1.3789 2.8789c1.6211 1.3203 4.7383 1.5 8.8984 0.60156 11.422-2.3984 27.699 2.4609 36.781 16.52-1.5-17.48-11.898-44.359-34.98-62.918-3.4805-2.8203-5.0391-7.3984-3.9609-11.602 1.0195-3.7188 1.9805-7.4609 2.9414-11.121 4.8594-18.699 9.9219-38.039 18.461-55.723 11.719-24.16 30.602-46.219 54.641-63.84 28.059-20.559 63.277-35.82 110.88-48.02 1.2617-0.35938 2.5781-0.66016 3.9609-0.96094 20.262-5 39.781-7.6406 57.883-7.8203 27.578-0.35938 52.961 4.9805 75.301 15.859l2.2812 1.1406c3.8398 1.9219 7.582 3.8008 11.422 4.3203 2.4609 0.23828 10.879-2.7617 12.859-6.3203 0.058594-0.17969 0.058594-0.30078 0.12109-0.48047-0.30078 0-0.60156 0-0.89844-0.058594-8-1.8594-20.559-6.2422-36.18-16.82zm-92.801-33.66c-26.02 29.441-55.723 37.078-79.641 37.078-11.059 0-20.859-1.6211-28.422-3.5391-3.4805-0.83984-5.7617-3.9609-5.5195-7.5195 0.23828-3.6602 2.9414-6.5 6.6016-6.8594 41.602-4.5586 44.719-23.801 44.781-23.98 0.23828-1.6211 1.6797-2.7617 3.3594-2.5781 1.6211 0.17969 2.7617 1.6797 2.5781 3.3008-0.12109 0.96094-3.2383 24.102-50.059 29.219-1.0781 0.12109-1.2617 0.96094-1.2617 1.3203-0.058594 0.66016 0.23828 1.0781 0.96094 1.2617 27.762 6.8594 67.977 6.9219 102.18-31.68 1.0781-1.2617 3-1.3789 4.1992-0.23828 1.2617 1.0781 1.3789 3 0.23828 4.1992zm51.02-9.1406c-0.30078-0.71875 0.058594-1.5586 0.78125-1.9219 0.48047-0.17969 0.96094-0.35938 1.5-0.48047 6.0781-1.7383 12.559 1.6211 14.898 7.9414 0.30078 0.71875-0.058594 1.5586-0.78125 1.8594-1.5586 0.71875-3.1797 1.0195-4.8008 1.0195-1.5586 0-3.1211-0.30078-4.6211-0.89844-3.1797-1.3789-5.7188-4.0195-6.9805-7.5195z" fill="#1363c1"/>
</svg>
