<?xml version="1.0" encoding="UTF-8"?>
<svg viewBox="0 0 512 512" xmlns="http://www.w3.org/2000/svg">
 <rect x="-51.2" y="-51.2" width="614.4" height="614.4" fill="#fafcff"/>
 <path d="m285.93 211.23c-0.31641 0.57812-0.74219 1.2734-1.2344 2.0156-0.99609 1.5234-2.3164 3.2891-4.082 5.1133-2.5586 2.6445-5.9688 5.3281-10.402 7.293-0.17578 0.089844-0.31641 0.21484-0.40234 0.36719-0.21484 0.32812-0.23828 0.73047-0.23828 1.0078v0.21484c0.0625 0.66797 0.40234 1.3477 0.99609 1.6641 0.11328 0.0625 0.21484 0.125 0.35156 0.15234 1.8008 0.37891 3.6758 0.69141 5.5664 0.94531 12.621 1.6875 26.715 0.023438 35.945-11.738 2.457-3.125 4.5586-6.9414 6.2109-11.602h-0.011719v-0.011719c-10.289 0.30078-21.234 1.8125-32.699 4.5859z" fill="#1464c1"/>
 <path d="m361.62 201.31c-13.891-9.3086-17.859-10.254-18.051-10.305-0.98438-0.1875-1.6641-1.1719-1.4727-2.1914 0.1875-0.98438 1.1328-1.6641 2.1523-1.5117 0.41406 0.074218 4.7344 0.98437 19.496 10.855 9.0039 6.0977 16.199 8.7422 20.82 9.875-0.98437-2.6445-3.1367-6.8125-7.457-9.2305-0.71875-0.37891-1.0977-1.1719-0.94531-1.9258 0.67969-4.082-4.9609-13.477-18.93-24.371-23.277-18.164-75.773-43.266-124.95-21.914-0.039063 0-0.074219 0-0.074219 0.039062-0.15234 0.039063-0.26562 0.039063-0.41406 0.074219-0.11328 0-0.22656 0.039063-0.30078 0.039063-0.11328 0-0.22656-0.039063-0.37891-0.074219-0.11328-0.039063-0.22656-0.039063-0.33984-0.11328h-0.074218c-23.277-11.586-41.719-8.7031-53.062-4.2461-1.3984 0.56641-1.3984 1.8516-1.3242 2.1914 0.074219 0.86719 0.60547 1.8125 1.8906 2.0391 7.7969 1.2852 12.871 4.5469 15.027 9.6484 4.3594 10.305-4.6602 24.184-6.5117 26.879-0.039063 0.039063-0.11328 0.074219-0.15234 0.11328v0.039062c-56.176 66.543-40.758 120.78-34.676 135.85 0.94531 2.4922 0.45312 5.2266-1.2461 7.1914-2.3047 2.6445-5.0742 5.5664-8.25 8.6289-9.8359 9.5352-13.816 22.973-15.367 30.695 5.6055-7.9492 12.723-11.816 20.594-11.359 3.2891 0.22656 5.9062-1.1328 7.8711-4.1328 0-0.039062 0.039063-0.039062 0.039063-0.074218 0.11328-0.15234 0.22656-0.26563 0.37891-0.37891 0.074219-0.074219 0.1875-0.11328 0.30078-0.1875 0.074219-0.039062 0.15234-0.074219 0.26562-0.11328 0.15234-0.039062 0.30078-0.074219 0.45312-0.074219 0.074219 0 0.15234-0.039062 0.1875-0.039062 0.074219 0 0.11328 0.039062 0.15234 0.039062 0.11328 0 0.22656 0.039063 0.33984 0.074219 0.11328 0.039062 0.26562 0.074219 0.33984 0.15234 0.039062 0 0.11328 0 0.15234 0.039062 0.039063 0.039063 0.074219 0.11328 0.15234 0.15234 0.074219 0.074219 0.1875 0.15234 0.26562 0.26562 0.074219 0.11328 0.15234 0.1875 0.1875 0.30078 0.074219 0.11328 0.11328 0.1875 0.15234 0.33984 0.039062 0.11328 0.039062 0.22656 0.039062 0.33984 0.039063 0.074218 0.074219 0.15234 0.074219 0.22656 0 0.074219 0 1.1328 0.86719 1.8125 1.0195 0.83203 2.9844 0.94531 5.6055 0.37891 7.1914-1.5117 17.445 1.5508 23.164 10.402-0.94531-11.008-7.4922-27.938-22.027-39.625-2.1914-1.7773-3.1758-4.6602-2.4922-7.3047 0.64063-2.3438 1.2461-4.6992 1.8516-7.0039 3.0625-11.777 6.2461-23.957 11.625-35.09 7.3828-15.215 19.27-29.109 34.41-40.203 17.672-12.949 39.852-22.559 69.828-30.242 0.79297-0.22656 1.625-0.41406 2.4922-0.60547 12.758-3.1484 25.051-4.8125 36.453-4.9258 17.367-0.22656 33.352 3.1367 47.422 9.9883l1.4375 0.71875c2.418 1.2109 4.7734 2.3945 7.1914 2.7188 1.5508 0.15234 6.8516-1.7383 8.0977-3.9805 0.039063-0.11328 0.039063-0.1875 0.074219-0.30078-0.1875 0-0.37891 0-0.56641-0.039063-5.0391-1.1719-12.949-3.9297-22.785-10.594zm-58.441-21.199c-16.387 18.539-35.09 23.352-50.156 23.352-6.9648 0-13.137-1.0195-17.898-2.2305-2.1914-0.52734-3.6289-2.4922-3.4766-4.7344 0.15234-2.3047 1.8516-4.0938 4.1562-4.3203 26.199-2.8711 28.164-14.988 28.199-15.102 0.15234-1.0195 1.0586-1.7383 2.1172-1.625 1.0195 0.11328 1.7383 1.0586 1.625 2.0781-0.074219 0.60547-2.0391 15.176-31.527 18.402-0.67969 0.074218-0.79297 0.60547-0.79297 0.83203-0.039063 0.41406 0.15234 0.67969 0.60547 0.79297 17.48 4.3203 42.809 4.3594 64.348-19.949 0.67969-0.79297 1.8906-0.86719 2.6445-0.15234 0.79297 0.67969 0.86719 1.8906 0.15234 2.6445zm32.129-5.7578c-0.1875-0.45312 0.039062-0.98438 0.49219-1.2109 0.30078-0.11328 0.60547-0.22656 0.94531-0.30078 3.8281-1.0977 7.9102 1.0195 9.3828 5 0.1875 0.45312-0.039062 0.98438-0.49219 1.1719-0.98438 0.45312-2.0039 0.64062-3.0234 0.64062-0.98438 0-1.9648-0.1875-2.9102-0.56641-2.0039-0.86719-3.6016-2.5312-4.3945-4.7344z" fill="#1464c1"/>
</svg>
