<?xml version="1.0" encoding="UTF-8" standalone="no"?>
<!DOCTYPE svg PUBLIC "-//W3C//DTD SVG 1.1//EN" "http://www.w3.org/Graphics/SVG/1.1/DTD/svg11.dtd">
<!-- Created with Vectornator (http://vectornator.io/) -->
<svg height="100%" stroke-miterlimit="10" style="fill-rule:nonzero;clip-rule:evenodd;stroke-linecap:round;stroke-linejoin:round;" version="1.1" viewBox="0 0 42 42" width="100%" xml:space="preserve" xmlns="http://www.w3.org/2000/svg" xmlns:vectornator="http://vectornator.io" xmlns:xlink="http://www.w3.org/1999/xlink">
<defs/>
<g id="Untitled" vectornator:layerName="Untitled">
<path d="M25.2369 22.5525L22.5157 20.5934L19.7948 22.5525L17.7841 21.1047L22.5161 15.9946L27.248 21.1047L25.2369 22.5525Z" fill="#001b48" fill-rule="nonzero" opacity="1" stroke="none" vectornator:layerName="path"/>
<path d="M22.3752 30.4355L4.07481 30.4355L13.225 20.1928L22.3752 30.4355Z" fill="#001b48" fill-rule="nonzero" opacity="1" stroke="none" vectornator:layerName="path"/>
<path d="M29.2992 30.3854L35.6102 30.3854L35.6102 30.3162L28.7223 22.878L25.2908 25.3482L22.5697 23.3892L20.1223 25.1514L24.969 30.3854" fill="#001b48" fill-rule="nonzero" opacity="1" stroke="none" vectornator:layerName="path"/>
<path d="M5.17228 21.0349C5.17228 21.745 5.30517 22.3997 5.57097 22.9992C5.72206 23.3403 5.90365 23.6557 6.11545 23.9458L2.99053 27.6135C2.18705 26.7883 1.55417 25.8341 1.09188 24.7507C0.607294 23.5988 0.365 22.3603 0.365 21.0349C0.365 19.7095 0.607294 18.4789 1.09188 17.3429C1.57657 16.1911 2.24885 15.1892 3.10863 14.3372C3.96851 13.4852 4.99247 12.8225 6.18064 12.3492C7.38441 11.86 8.70548 11.6155 10.1437 11.6155C11.5664 11.6155 12.8796 11.86 14.0834 12.3492C15.2872 12.8225 16.319 13.4852 17.1788 14.3372C17.6902 14.8349 18.135 15.3838 18.5131 15.9839L15.9812 18.838C15.9036 18.9255 15.809 19.0231 15.7081 19.1271C15.5931 19.2457 15.4693 19.3735 15.3508 19.5066L14.4053 18.4408C14.1901 18.0985 13.9342 17.7878 13.6378 17.5085C13.1844 17.0667 12.6529 16.7275 12.0432 16.4908C11.4491 16.2384 10.8161 16.1122 10.1437 16.1122C9.47146 16.1122 8.83048 16.2384 8.22079 16.4908C7.62671 16.7275 7.10302 17.0667 6.64963 17.5085C6.19624 17.9503 5.83665 18.471 5.57097 19.0705C5.30517 19.6701 5.17228 20.3249 5.17228 21.0349Z" fill="#0089d6" fill-rule="nonzero" opacity="1" stroke="none" vectornator:layerName="path"/>
<path d="M38.8678 27.6817C38.4102 28.1352 37.9039 28.5372 37.3488 28.8879L34.249 25.3049C34.6473 25.0873 35.0066 24.8224 35.3269 24.5104C35.7959 24.0685 36.1633 23.5479 36.4291 22.9483C36.6949 22.3488 36.8277 21.694 36.8277 20.9839C36.8277 20.2739 36.6949 19.6192 36.4291 19.0196C36.1633 18.42 35.7959 17.8994 35.3269 17.4576C34.8734 17.0158 34.342 16.6766 33.7322 16.4399C33.1382 16.1875 32.5051 16.0613 31.8328 16.0613C31.1606 16.0613 30.5196 16.1875 29.9098 16.4399C29.3158 16.6766 28.7921 17.0158 28.3387 17.4576C28.1682 17.6237 28.011 17.801 27.867 17.9895L24.6838 14.4011C24.7214 14.3625 24.7594 14.3242 24.7977 14.2862C25.6575 13.4342 26.6815 12.7716 27.8697 12.2982C29.0734 11.8091 30.3945 11.5646 31.8328 11.5646C33.2554 11.5646 34.5687 11.8091 35.7725 12.2982C36.9762 12.7716 38.008 13.4342 38.8678 14.2862C39.7434 15.1382 40.4235 16.1401 40.908 17.2919C41.3927 18.4279 41.635 19.6586 41.635 20.9839C41.635 22.3093 41.3927 23.5479 40.908 24.6997C40.4235 25.8357 39.7434 26.8297 38.8678 27.6817Z" fill="#0089d6" fill-rule="nonzero" opacity="1" stroke="none" vectornator:layerName="path"/>
</g>
</svg>
